<svg width="220" height="26" viewBox="0 0 346 46" fill="none" xmlns="http://www.w3.org/2000/svg">
<path d="M0.88 1.736C2.224 1.48 3.696 1.288 5.296 1.16C6.928 0.999998 8.544 0.919998 10.144 0.919998C11.808 0.919998 13.472 1.064 15.136 1.352C16.832 1.608 18.352 2.152 19.696 2.984C21.04 3.784 22.128 4.92 22.96 6.392C23.824 7.832 24.256 9.72 24.256 12.056C24.256 14.168 23.888 15.96 23.152 17.432C22.416 18.872 21.44 20.056 20.224 20.984C19.008 21.912 17.616 22.584 16.048 23C14.512 23.416 12.912 23.624 11.248 23.624C11.088 23.624 10.832 23.624 10.48 23.624C10.128 23.624 9.76 23.624 9.376 23.624C8.992 23.592 8.608 23.56 8.224 23.528C7.872 23.496 7.616 23.464 7.456 23.432V35H0.88V1.736ZM10.672 6.584C10.032 6.584 9.424 6.616 8.848 6.68C8.272 6.712 7.808 6.76 7.456 6.824V17.72C7.584 17.752 7.776 17.784 8.032 17.816C8.288 17.848 8.56 17.88 8.848 17.912C9.136 17.912 9.408 17.912 9.664 17.912C9.952 17.912 10.16 17.912 10.288 17.912C11.152 17.912 12 17.832 12.832 17.672C13.696 17.512 14.464 17.224 15.136 16.808C15.808 16.36 16.336 15.752 16.72 14.984C17.136 14.216 17.344 13.208 17.344 11.96C17.344 10.904 17.152 10.04 16.768 9.368C16.384 8.664 15.872 8.104 15.232 7.688C14.624 7.272 13.92 6.984 13.12 6.824C12.32 6.664 11.504 6.584 10.672 6.584ZM40.0465 16.856C39.0545 16.504 38.1585 16.328 37.3585 16.328C36.2385 16.328 35.2945 16.632 34.5265 17.24C33.7905 17.816 33.2945 18.568 33.0385 19.496V35H26.7985V11H31.6465L32.3665 14.168H32.5585C33.1025 12.984 33.8385 12.072 34.7665 11.432C35.6945 10.792 36.7825 10.472 38.0305 10.472C38.8625 10.472 39.8065 10.648 40.8625 11L40.0465 16.856ZM62.8266 32.936C61.8666 33.704 60.5546 34.36 58.8906 34.904C57.2586 35.416 55.5146 35.672 53.6586 35.672C49.7866 35.672 46.9546 34.552 45.1626 32.312C43.3706 30.04 42.4746 26.936 42.4746 23C42.4746 18.776 43.4826 15.608 45.4986 13.496C47.5146 11.384 50.3466 10.328 53.9946 10.328C55.2106 10.328 56.3946 10.488 57.5466 10.808C58.6986 11.128 59.7226 11.656 60.6186 12.392C61.5146 13.128 62.2346 14.12 62.7786 15.368C63.3226 16.616 63.5946 18.168 63.5946 20.024C63.5946 20.696 63.5466 21.416 63.4506 22.184C63.3866 22.952 63.2746 23.752 63.1146 24.584H48.7146C48.8106 26.6 49.3226 28.12 50.2506 29.144C51.2106 30.168 52.7466 30.68 54.8586 30.68C56.1706 30.68 57.3386 30.488 58.3626 30.104C59.4186 29.688 60.2186 29.272 60.7626 28.856L62.8266 32.936ZM53.8986 15.32C52.2666 15.32 51.0506 15.816 50.2506 16.808C49.4826 17.768 49.0186 19.064 48.8586 20.696H57.7866C57.9146 18.968 57.6426 17.64 56.9706 16.712C56.3306 15.784 55.3066 15.32 53.8986 15.32ZM88.4016 26.552C88.4016 27.896 88.4176 29.24 88.4496 30.584C88.4816 31.928 88.6256 33.416 88.8816 35.048H84.4176L83.5536 31.928H83.3616C82.7216 33.048 81.7936 33.96 80.5776 34.664C79.3936 35.336 77.9856 35.672 76.3536 35.672C73.3456 35.672 71.0096 34.68 69.3456 32.696C67.6816 30.712 66.8496 27.608 66.8496 23.384C66.8496 19.288 67.7776 16.104 69.6336 13.832C71.4896 11.56 74.2096 10.424 77.7936 10.424C78.7856 10.424 79.6016 10.488 80.2416 10.616C80.8816 10.712 81.5216 10.888 82.1616 11.144V1.4H88.4016V26.552ZM77.7936 30.392C79.0096 30.392 79.9696 30.104 80.6736 29.528C81.3776 28.92 81.8736 28.056 82.1616 26.936V16.76C81.7136 16.408 81.2176 16.152 80.6736 15.992C80.1296 15.8 79.4256 15.704 78.5616 15.704C76.8016 15.704 75.4736 16.296 74.5776 17.48C73.7136 18.664 73.2816 20.696 73.2816 23.576C73.2816 25.624 73.6336 27.272 74.3376 28.52C75.0736 29.768 76.2256 30.392 77.7936 30.392ZM94.4046 11H100.645V35H94.4046V11ZM93.4926 4.232C93.4926 3.304 93.8286 2.52 94.5006 1.88C95.2046 1.208 96.1646 0.871999 97.3806 0.871999C98.5966 0.871999 99.5726 1.208 100.309 1.88C101.077 2.52 101.461 3.304 101.461 4.232C101.461 5.16 101.077 5.944 100.309 6.584C99.5726 7.192 98.5966 7.496 97.3806 7.496C96.1646 7.496 95.2046 7.192 94.5006 6.584C93.8286 5.944 93.4926 5.16 93.4926 4.232ZM114.687 25.064H113.007V35H106.767V1.4H113.007V21.224L114.447 20.552L119.919 11H126.783L121.023 20.12L118.575 21.944L121.215 23.816L127.695 35H120.543L114.687 25.064ZM140.281 28.376C140.281 27.736 140.009 27.224 139.465 26.84C138.921 26.456 138.249 26.104 137.449 25.784C136.649 25.464 135.769 25.144 134.809 24.824C133.849 24.472 132.969 24.008 132.169 23.432C131.369 22.824 130.697 22.072 130.153 21.176C129.609 20.248 129.337 19.064 129.337 17.624C129.337 15.256 130.041 13.448 131.449 12.2C132.857 10.952 134.889 10.328 137.545 10.328C139.369 10.328 141.017 10.52 142.489 10.904C143.961 11.288 145.113 11.72 145.945 12.2L144.553 16.712C143.817 16.424 142.889 16.12 141.769 15.8C140.649 15.48 139.513 15.32 138.361 15.32C136.505 15.32 135.577 16.04 135.577 17.48C135.577 18.056 135.849 18.52 136.393 18.872C136.937 19.224 137.609 19.56 138.409 19.88C139.209 20.168 140.089 20.488 141.049 20.84C142.009 21.192 142.889 21.656 143.689 22.232C144.489 22.776 145.161 23.496 145.705 24.392C146.249 25.288 146.521 26.44 146.521 27.848C146.521 30.28 145.737 32.2 144.169 33.608C142.633 34.984 140.313 35.672 137.209 35.672C135.513 35.672 133.913 35.448 132.409 35C130.937 34.584 129.737 34.088 128.809 33.512L130.537 28.856C131.273 29.272 132.249 29.688 133.465 30.104C134.681 30.488 135.929 30.68 137.209 30.68C138.137 30.68 138.873 30.504 139.417 30.152C139.993 29.8 140.281 29.208 140.281 28.376ZM151.123 11H157.363V35H151.123V11ZM150.211 4.232C150.211 3.304 150.547 2.52 151.219 1.88C151.923 1.208 152.883 0.871999 154.099 0.871999C155.315 0.871999 156.291 1.208 157.027 1.88C157.795 2.52 158.179 3.304 158.179 4.232C158.179 5.16 157.795 5.944 157.027 6.584C156.291 7.192 155.315 7.496 154.099 7.496C152.883 7.496 151.923 7.192 151.219 6.584C150.547 5.944 150.211 5.16 150.211 4.232ZM190.267 25.976C190.267 24.952 189.883 24.12 189.115 23.48C188.379 22.84 187.435 22.264 186.283 21.752C185.163 21.208 183.931 20.664 182.587 20.12C181.275 19.544 180.043 18.856 178.891 18.056C177.771 17.224 176.827 16.2 176.059 14.984C175.323 13.768 174.955 12.216 174.955 10.328C174.955 8.696 175.227 7.288 175.771 6.104C176.315 4.888 177.083 3.88 178.075 3.08C179.099 2.28 180.299 1.688 181.675 1.304C183.051 0.919998 184.587 0.727998 186.283 0.727998C188.235 0.727998 190.075 0.903998 191.803 1.256C193.531 1.576 194.955 2.056 196.075 2.696L194.011 8.216C193.307 7.768 192.251 7.368 190.843 7.016C189.435 6.632 187.915 6.44 186.283 6.44C184.747 6.44 183.563 6.744 182.731 7.352C181.931 7.96 181.531 8.776 181.531 9.8C181.531 10.76 181.899 11.56 182.635 12.2C183.403 12.84 184.347 13.432 185.467 13.976C186.619 14.52 187.851 15.08 189.163 15.656C190.507 16.232 191.739 16.936 192.859 17.768C194.011 18.568 194.955 19.576 195.691 20.792C196.459 21.976 196.843 23.464 196.843 25.256C196.843 27.048 196.539 28.6 195.931 29.912C195.355 31.192 194.523 32.264 193.435 33.128C192.379 33.992 191.083 34.632 189.547 35.048C188.043 35.464 186.379 35.672 184.555 35.672C182.155 35.672 180.043 35.448 178.219 35C176.395 34.552 175.051 34.104 174.187 33.656L176.299 28.04C176.651 28.232 177.099 28.44 177.643 28.664C178.219 28.888 178.859 29.096 179.563 29.288C180.267 29.48 181.003 29.64 181.771 29.768C182.571 29.896 183.387 29.96 184.219 29.96C186.171 29.96 187.659 29.64 188.683 29C189.739 28.328 190.267 27.32 190.267 25.976ZM198.584 11H201.896V6.488L208.136 4.712V11H213.992V16.28H208.136V25.496C208.136 27.16 208.296 28.36 208.616 29.096C208.968 29.8 209.608 30.152 210.536 30.152C211.176 30.152 211.72 30.088 212.168 29.96C212.648 29.832 213.176 29.64 213.752 29.384L214.856 34.184C213.992 34.6 212.984 34.952 211.832 35.24C210.68 35.528 209.512 35.672 208.328 35.672C206.12 35.672 204.488 35.112 203.432 33.992C202.408 32.84 201.896 30.968 201.896 28.376V16.28H198.584V11ZM223.814 11V24.632C223.814 26.584 224.038 27.992 224.486 28.856C224.966 29.72 225.878 30.152 227.222 30.152C228.406 30.152 229.382 29.8 230.15 29.096C230.95 28.392 231.542 27.528 231.926 26.504V11H238.166V27.704C238.166 29.016 238.23 30.312 238.358 31.592C238.486 32.84 238.678 33.976 238.934 35H234.23L233.126 31.448H232.934C232.198 32.664 231.174 33.672 229.862 34.472C228.55 35.272 226.998 35.672 225.206 35.672C223.99 35.672 222.902 35.512 221.942 35.192C220.982 34.872 220.182 34.344 219.542 33.608C218.902 32.872 218.406 31.88 218.054 30.632C217.734 29.384 217.574 27.816 217.574 25.928V11H223.814ZM258.33 35V21.368C258.33 19.416 258.042 18.008 257.466 17.144C256.922 16.28 255.978 15.848 254.634 15.848C253.45 15.848 252.442 16.2 251.61 16.904C250.81 17.576 250.234 18.424 249.882 19.448V35H243.642V11H248.586L249.306 14.168H249.498C250.234 13.144 251.21 12.248 252.426 11.48C253.642 10.712 255.21 10.328 257.13 10.328C258.314 10.328 259.37 10.488 260.298 10.808C261.226 11.128 262.01 11.656 262.65 12.392C263.29 13.128 263.77 14.136 264.09 15.416C264.41 16.664 264.57 18.216 264.57 20.072V35H258.33ZM267.303 11H270.615V6.488L276.855 4.712V11H282.711V16.28H276.855V25.496C276.855 27.16 277.015 28.36 277.335 29.096C277.687 29.8 278.327 30.152 279.255 30.152C279.895 30.152 280.439 30.088 280.887 29.96C281.367 29.832 281.895 29.64 282.471 29.384L283.575 34.184C282.711 34.6 281.703 34.952 280.551 35.24C279.399 35.528 278.231 35.672 277.047 35.672C274.839 35.672 273.207 35.112 272.151 33.992C271.127 32.84 270.615 30.968 270.615 28.376V16.28H267.303V11ZM287.061 11H293.301V35H287.061V11ZM286.149 4.232C286.149 3.304 286.485 2.52 287.157 1.88C287.861 1.208 288.821 0.871999 290.037 0.871999C291.253 0.871999 292.229 1.208 292.965 1.88C293.733 2.52 294.117 3.304 294.117 4.232C294.117 5.16 293.733 5.944 292.965 6.584C292.229 7.192 291.253 7.496 290.037 7.496C288.821 7.496 287.861 7.192 287.157 6.584C286.485 5.944 286.149 5.16 286.149 4.232ZM314.112 35V21.368C314.112 19.416 313.824 18.008 313.248 17.144C312.704 16.28 311.76 15.848 310.416 15.848C309.232 15.848 308.224 16.2 307.392 16.904C306.592 17.576 306.016 18.424 305.664 19.448V35H299.424V11H304.368L305.088 14.168H305.28C306.016 13.144 306.992 12.248 308.208 11.48C309.424 10.712 310.992 10.328 312.912 10.328C314.096 10.328 315.152 10.488 316.08 10.808C317.008 11.128 317.792 11.656 318.432 12.392C319.072 13.128 319.552 14.136 319.872 15.416C320.192 16.664 320.352 18.216 320.352 20.072V35H314.112ZM345.884 35C345.884 38.488 344.94 41.048 343.052 42.68C341.164 44.344 338.524 45.176 335.132 45.176C332.828 45.176 331.004 45.016 329.66 44.696C328.348 44.376 327.356 44.04 326.684 43.688L327.98 38.744C328.716 39.032 329.564 39.32 330.524 39.608C331.516 39.896 332.732 40.04 334.172 40.04C336.348 40.04 337.82 39.56 338.588 38.6C339.388 37.672 339.788 36.36 339.788 34.664V33.128H339.596C338.476 34.632 336.492 35.384 333.644 35.384C330.54 35.384 328.22 34.424 326.684 32.504C325.18 30.584 324.428 27.576 324.428 23.48C324.428 19.192 325.452 15.944 327.5 13.736C329.548 11.528 332.524 10.424 336.428 10.424C338.476 10.424 340.3 10.568 341.9 10.856C343.532 11.144 344.86 11.48 345.884 11.864V35ZM335.324 30.392C336.54 30.392 337.468 30.12 338.108 29.576C338.78 29.032 339.292 28.216 339.644 27.128V16.328C338.652 15.912 337.42 15.704 335.948 15.704C334.348 15.704 333.1 16.312 332.204 17.528C331.308 18.712 330.86 20.616 330.86 23.24C330.86 25.576 331.244 27.352 332.012 28.568C332.78 29.784 333.884 30.392 335.324 30.392Z" fill="#0FA9FF"/>
</svg>
