<svg width="50" height="50" viewBox="0 0 159 131" fill="none" xmlns="http://www.w3.org/2000/svg">
<path d="M87.5509 61.2589C87.4365 61.2564 87.3221 61.254 87.2042 61.2514C86.2641 61.2521 85.6399 61.475 84.904 62.0542C84.8244 62.1351 84.7448 62.2159 84.6628 62.2993C84.581 62.3798 84.4992 62.4603 84.4149 62.5433C84.1917 62.8422 84.1651 63.0634 84.0961 63.425C84.0333 63.4801 83.9705 63.5352 83.9059 63.5919C83.5763 63.9635 83.6643 64.5072 83.6579 64.984C83.6503 65.2104 83.6255 65.436 83.5992 65.6609C83.5378 65.7162 83.4764 65.7714 83.4131 65.8283C83.1396 66.1292 83.1768 66.3668 83.1717 66.7677C83.1684 66.9111 83.1651 67.0545 83.1618 67.2023C83.1601 67.3521 83.1584 67.5019 83.1567 67.6562C83.1524 67.9527 83.1471 68.2492 83.1407 68.5456C83.1391 68.6773 83.1376 68.8089 83.136 68.9445C83.1339 69.2837 83.1339 69.2837 82.8539 69.5117C82.8218 69.7521 82.8218 69.7521 82.8202 70.0491C82.8183 70.2157 82.8183 70.2157 82.8164 70.3857C82.8161 70.506 82.8158 70.6262 82.8156 70.75C82.8124 71.0028 82.8093 71.2556 82.8061 71.5084C82.8025 71.9084 82.7995 72.3083 82.7972 72.7082C82.7945 73.0933 82.7896 73.4782 82.7845 73.8633C82.7845 74.0436 82.7845 74.0436 82.7845 74.2275C82.782 74.3942 82.782 74.3942 82.7794 74.5642C82.7788 74.6622 82.7782 74.7602 82.7775 74.8611C82.7538 74.9801 82.7538 74.9801 82.7297 75.1016C82.5452 75.2245 82.5452 75.2245 82.357 75.35C82.3301 75.496 82.3301 75.496 82.3027 75.645C82.2138 76.0599 82.0377 76.1748 81.7359 76.468C81.5557 76.7509 81.3999 77.0426 81.239 77.3375C81.1571 77.4605 81.0751 77.5834 80.9906 77.7101C80.9906 77.8331 80.9906 77.9561 80.9906 78.0828C80.8254 78.1251 80.8254 78.1251 80.6568 78.1682C79.7679 78.5204 79.2411 79.4025 78.7547 80.1945C78.7547 80.2765 78.7547 80.3585 78.7547 80.443C78.6727 80.443 78.5907 80.443 78.5062 80.443C78.4114 80.5659 78.3166 80.6889 78.219 80.8156C77.9592 81.1523 77.9592 81.1523 77.5358 81.2349C77.4461 81.2195 77.3564 81.2041 77.264 81.1883C77.346 81.0704 77.428 80.9526 77.5125 80.8311C77.7609 80.443 77.7609 80.443 77.7609 80.1945C77.8429 80.1945 77.9249 80.1945 78.0094 80.1945C78.0094 80.1125 78.0094 80.0306 78.0094 79.9461C78.08 79.9406 78.1506 79.9352 78.2233 79.9296C78.6508 79.7668 78.8005 79.4635 79.0575 79.0921C79.4189 78.5704 79.6958 78.2686 80.2453 77.9586C80.4472 77.731 80.4472 77.731 80.618 77.485C81.1416 76.6835 81.1416 76.6835 81.8601 76.0953C81.8544 76.0143 81.8486 75.9333 81.8427 75.8498C81.8109 75.0812 81.9099 74.7487 82.357 74.1078C82.2651 73.7035 82.1526 73.5307 81.8601 73.2383C81.803 72.9647 81.803 72.9647 81.7825 72.6638C81.7732 72.5622 81.7639 72.4607 81.7544 72.3561C81.7452 72.2394 81.7452 72.2394 81.7359 72.1203C81.6539 72.1203 81.572 72.1203 81.4875 72.1203C81.4875 72.0383 81.4875 71.9563 81.4875 71.8719C81.3016 71.6933 81.3016 71.6933 81.0605 71.4992C80.7233 71.2327 80.7233 71.2327 80.4937 70.8781C80.4117 70.8781 80.3298 70.8781 80.2453 70.8781C80.2453 70.7961 80.2453 70.7142 80.2453 70.6297C79.6094 70.0406 78.7977 70.0983 77.9743 70.0748C76.6528 70.1263 75.9961 70.768 75.1278 71.7011C74.6336 72.2713 74.3077 72.7883 74.0344 73.4867C73.9114 73.5687 73.7884 73.6507 73.6617 73.7352C73.6617 73.8171 73.6617 73.8991 73.6617 73.9836C73.5797 73.9836 73.4977 73.9836 73.4133 73.9836C73.2451 74.1886 73.0795 74.3957 72.9164 74.6047C72.8344 74.6457 72.7524 74.6867 72.668 74.7289C72.668 74.8109 72.668 74.8929 72.668 74.9773C72.586 74.9773 72.504 74.9773 72.4195 74.9773C72.4195 75.0593 72.4195 75.1413 72.4195 75.2258C72.3375 75.2258 72.2555 75.2258 72.1711 75.2258C72.0029 75.4307 71.8373 75.6379 71.6742 75.8469C71.5922 75.8879 71.5102 75.9289 71.4258 75.9711C71.4258 76.0531 71.4258 76.1351 71.4258 76.2195C71.3438 76.2195 71.2618 76.2195 71.1773 76.2195C71.0082 76.4237 70.8432 76.6313 70.6805 76.8406C70.4759 77.0501 70.2691 77.2575 70.0594 77.4617C69.9774 77.5437 69.8954 77.6257 69.8109 77.7101C69.6457 77.7563 69.6457 77.7563 69.4771 77.8033C69.0162 77.9772 68.7592 78.2008 68.4086 78.5375C68.1706 78.7238 67.9894 78.7585 67.6992 78.8281C67.4922 79.0351 67.2851 79.2422 67.0781 79.4492C66.6883 79.6695 66.2863 79.8418 65.8747 80.016C65.4633 80.1945 65.4633 80.1945 65.0906 80.443C64.9497 80.4609 64.8088 80.4788 64.6636 80.4973C64.2211 80.5672 64.2211 80.5672 63.9887 80.7535C63.6552 80.9885 63.4296 80.9928 63.0255 81.0097C62.3838 81.0381 62.3838 81.0381 62.1094 81.3125C61.856 81.3406 61.6027 81.3686 61.349 81.3935C61.0467 81.4495 60.9566 81.5957 60.743 81.8094C60.5021 81.8379 60.261 81.8659 60.0195 81.888C59.5503 81.9672 59.1679 82.2028 58.7555 82.4305C58.5695 82.5244 58.3832 82.6176 58.1965 82.71C58.053 82.7817 57.9095 82.8534 57.7617 82.9273C57.7617 83.0093 57.7617 83.0913 57.7617 83.1758C57.6568 83.1788 57.5519 83.1819 57.4439 83.185C56.8419 83.3469 56.5549 83.698 56.1391 84.1462C55.9904 84.3026 55.8415 84.4587 55.6922 84.6145C55.622 84.6885 55.5517 84.7625 55.4793 84.8388C55.2612 85.0634 55.2612 85.0634 54.9173 85.3152C54.545 85.63 54.5928 85.9365 54.532 86.4055C54.2919 86.5411 54.2919 86.5411 54.0351 86.6539C53.8876 87.0343 53.8876 87.0343 53.7867 87.3992C53.7457 87.4402 53.7047 87.4812 53.6625 87.5234C53.6536 87.7122 53.6521 87.9013 53.6547 88.0902C53.6558 88.1928 53.657 88.2955 53.6581 88.4012C53.6603 88.5201 53.6603 88.5201 53.6625 88.6414C53.5819 88.6725 53.5014 88.7035 53.4184 88.7355C53.335 88.7865 53.2516 88.8374 53.1656 88.8898C53.0957 89.3712 53.0957 89.3712 53.0875 89.6264C53.0603 89.8982 53.0602 89.8982 52.8551 90.1119C52.6369 90.4263 52.6219 90.5811 52.6214 90.9595C52.6204 91.0753 52.6193 91.1911 52.6182 91.3104C52.6194 91.4997 52.6194 91.4997 52.6205 91.6927C52.6195 91.8931 52.6195 91.8931 52.6185 92.0975C52.6169 92.5394 52.618 92.9814 52.6192 93.4233C52.619 93.7303 52.6186 94.0372 52.6182 94.3442C52.6176 94.9877 52.6184 95.6313 52.6202 96.2748C52.6223 97.1 52.6211 97.925 52.6188 98.7502C52.6175 99.3841 52.6179 100.018 52.6189 100.652C52.6191 100.956 52.6188 101.26 52.6179 101.565C52.617 101.99 52.6184 102.415 52.6205 102.84C52.6198 102.966 52.619 103.092 52.6182 103.222C52.624 103.857 52.6469 104.265 53.0414 104.79C53.0747 104.921 53.108 105.051 53.1423 105.186C53.2898 105.535 53.2898 105.535 53.5903 105.679C54.178 105.817 54.7355 105.823 55.3375 105.826C55.5318 105.828 55.5318 105.828 55.7301 105.83C56.1574 105.834 56.5847 105.836 57.012 105.838C57.1583 105.839 57.3045 105.84 57.4552 105.841C58.2286 105.845 59.002 105.848 59.7754 105.85C60.5738 105.852 61.3721 105.859 62.1704 105.868C62.785 105.873 63.3995 105.875 64.0141 105.876C64.3084 105.877 64.6028 105.879 64.8971 105.883C65.309 105.888 65.7205 105.888 66.1324 105.886C66.2535 105.889 66.3747 105.892 66.4995 105.895C67.1382 105.886 67.4921 105.817 67.9606 105.365C68.5562 104.698 68.4599 103.969 68.4435 103.117C68.4414 102.913 68.4393 102.709 68.4372 102.506C68.4334 102.188 68.429 101.87 68.4232 101.552C68.4179 101.243 68.415 100.934 68.4125 100.625C68.4102 100.53 68.4079 100.436 68.4055 100.339C68.4026 99.7315 68.5294 99.3549 68.8172 98.8273C68.8172 98.6634 68.8172 98.4994 68.8172 98.3305C68.9401 98.2895 69.0631 98.2485 69.1898 98.2062C69.3373 97.7637 69.3373 97.7637 69.4383 97.3367C69.5202 97.3367 69.6022 97.3367 69.6867 97.3367C69.7354 97.2624 69.7841 97.1881 69.8342 97.1116C70.0508 96.8059 70.0508 96.8059 70.4621 96.6797C70.9684 96.4728 71.2936 96.1686 71.6664 95.7762C71.7277 95.7148 71.7889 95.6534 71.852 95.5901C72.2953 95.1358 72.2953 95.1358 72.2953 94.8523C72.5822 94.8113 72.8692 94.7704 73.1648 94.7281C73.1648 94.6461 73.1648 94.5642 73.1648 94.4797C73.2442 94.4464 73.3237 94.4131 73.4055 94.3788C73.6617 94.2312 73.6617 94.2312 73.7859 93.8586C73.9089 93.8176 74.0319 93.7766 74.1586 93.7344C74.1586 93.6524 74.1586 93.5704 74.1586 93.4859C74.2498 93.497 74.3411 93.508 74.4352 93.5194C74.9011 93.4741 75.0174 93.2963 75.3231 92.9502C75.6679 92.5833 75.8645 92.3822 76.3324 92.1816C76.8928 91.9415 77.2043 91.5796 77.6105 91.1331C77.9025 90.8611 78.1349 90.763 78.5062 90.6289C78.7836 90.4412 79.0043 90.2378 79.2515 90.0078C79.2515 89.9258 79.2515 89.8438 79.2515 89.7594C79.3335 89.7594 79.4155 89.7594 79.5 89.7594C79.541 89.6774 79.582 89.5954 79.6242 89.5109C79.7292 89.4853 79.8343 89.4597 79.9425 89.4333C80.3856 89.2561 80.5461 89.1062 80.8664 88.7656C81.2531 88.3552 81.5403 88.134 82.1086 88.0203C82.1086 87.9383 82.1086 87.8563 82.1086 87.7719C82.188 87.7386 82.2674 87.7053 82.3493 87.6709C82.6055 87.5234 82.6055 87.5234 82.7297 87.1508C82.8117 87.1508 82.8936 87.1508 82.9781 87.1508C83.1905 86.9493 83.3972 86.7416 83.5992 86.5297C83.6735 86.4605 83.7478 86.3913 83.8243 86.3201C83.9719 86.157 83.9719 86.157 83.9719 85.9086C84.0795 85.8625 84.0795 85.8625 84.1892 85.8154C84.81 85.4706 85.02 85.0896 85.214 84.418C85.255 84.377 85.296 84.336 85.3383 84.2937C85.3623 84.0458 85.3859 83.7978 85.4033 83.5494C85.442 83.2874 85.442 83.2874 85.6498 83.1166C85.9466 82.8136 85.8926 82.484 85.9089 82.0772C85.9706 81.7498 86.0993 81.6645 86.332 81.4367C86.3295 81.2958 86.3269 81.1549 86.3242 81.0097C86.3338 80.4669 86.4572 80.4304 86.8289 80.0703C86.8341 79.8219 86.8341 79.5734 86.8289 79.325C86.8904 79.2507 86.9519 79.1764 87.0152 79.0998C87.3096 78.6706 87.2307 78.2156 87.2015 77.7101C87.3245 77.6692 87.4475 77.6282 87.5742 77.5859C87.6011 77.4476 87.6011 77.4476 87.6285 77.3064C87.6516 77.1937 87.6747 77.081 87.6984 76.9648C87.7138 76.8829 87.7292 76.8009 87.745 76.7164C87.8171 76.4473 87.8171 76.4473 88.0167 76.1652C88.2177 75.8069 88.1953 75.6265 88.1953 75.2258C88.2568 75.1489 88.3183 75.0721 88.3816 74.9929C88.568 74.7289 88.568 74.7289 88.5602 74.2941C88.5177 73.8539 88.5177 73.8539 88.8086 73.6187C89.0998 73.3275 89.105 73.244 89.1425 72.8501C89.1377 72.3675 89.1377 72.3675 89.4375 72.1203C89.4806 71.7411 89.4925 71.3647 89.5069 70.9834C89.5684 70.5868 89.6499 70.5171 89.9344 70.257C89.9318 70.1161 89.9292 69.9752 89.9266 69.83C89.9292 69.684 89.9317 69.538 89.9344 69.3875C90.0163 69.3158 90.0983 69.244 90.1828 69.1701C90.4996 68.8137 90.4543 68.6665 90.439 68.1997C90.4302 68.0816 90.4214 67.9636 90.4123 67.842C90.4186 67.7372 90.4248 67.6323 90.4312 67.5242C90.5218 67.4492 90.5218 67.4492 90.6143 67.3727C91.0241 66.8947 90.8834 66.083 90.8866 65.4729C90.8893 65.1975 90.8992 64.923 90.9094 64.6478C90.9335 63.3676 90.9335 63.3676 90.5897 62.8609C90.2216 62.5307 89.9067 62.3392 89.4375 62.1828C89.3503 62.0194 89.2679 61.8535 89.189 61.6859C88.7526 61.1362 88.2023 61.254 87.5509 61.2589ZM76.643 81.4367C76.797 81.8989 76.714 82.0571 76.5498 82.5081C76.5069 82.6301 76.464 82.7521 76.4197 82.8778C76.2936 83.2167 76.2936 83.2167 75.8976 83.3C75.8976 83.382 75.8976 83.464 75.8976 83.5484C75.4975 83.8361 75.4975 83.8361 75.0281 83.9211C74.9969 83.9955 74.9657 84.07 74.9335 84.1467C74.759 84.4544 74.5954 84.5831 74.3061 84.7829C73.8835 85.0849 73.5324 85.4168 73.1648 85.7844C72.9587 85.9101 72.7517 86.0344 72.5437 86.157C72.4169 86.2877 72.4169 86.2877 72.2875 86.421C72.0273 86.6728 71.8899 86.6961 71.55 86.7781C71.509 86.9011 71.468 87.0241 71.4258 87.1508C71.2618 87.1508 71.0978 87.1508 70.9289 87.1508C71.1156 86.6281 71.4547 86.43 71.9226 86.157C72.0046 86.157 72.0866 86.157 72.1711 86.157C72.1711 86.075 72.1711 85.9931 72.1711 85.9086C72.3595 85.718 72.3595 85.718 72.6058 85.5204C73.2264 84.9935 73.805 84.4273 74.358 83.8299C74.5229 83.6448 74.5229 83.6448 74.7797 83.6726C74.8155 83.5958 74.8514 83.5189 74.8884 83.4397C75.0203 83.1592 75.0203 83.1592 75.2765 82.9273C75.3329 82.7915 75.3893 82.6558 75.4473 82.5159C75.6227 82.0946 75.8196 81.7632 76.1461 81.4367C76.31 81.4367 76.474 81.4367 76.643 81.4367ZM69.5625 88.5172C69.4395 88.7631 69.3165 89.0091 69.1898 89.2625C68.9439 89.2625 68.6979 89.2625 68.4445 89.2625C68.9136 88.7307 68.9136 88.7307 69.5625 88.5172ZM68.3203 89.3867C68.1961 89.6351 68.1961 89.6351 68.1961 89.6351L68.3203 89.3867ZM67.9476 89.7594C68.1116 89.8823 68.2756 90.0053 68.4445 90.132C68.2805 90.173 68.1166 90.214 67.9476 90.2562C67.9476 90.3382 67.9476 90.4202 67.9476 90.5047C67.7043 90.7176 67.4559 90.925 67.2023 91.1258C67.1203 90.9618 67.0384 90.7978 66.9539 90.6289C67.1555 90.4166 67.363 90.2097 67.575 90.0078C67.657 90.0078 67.739 90.0078 67.8234 90.0078C67.8644 89.9258 67.9054 89.8438 67.9476 89.7594Z" fill="#0FA9FF"/>
<path d="M4.84459 61.3133C3.94276 61.3133 3.04093 61.3133 2.11177 61.3133C2.11177 61.3953 2.11177 61.4773 2.11177 61.5617C2.03235 61.595 1.95293 61.6283 1.8711 61.6627C1.6149 61.8102 1.6149 61.8102 1.49068 62.1828C1.4087 62.1828 1.32671 62.1828 1.24224 62.1828C1.02984 62.3843 0.823196 62.592 0.621151 62.8039C0.520466 62.8779 0.520466 62.8779 0.417747 62.9533C0.152428 63.3033 0.197823 63.6794 0.203369 64.1009C0.203304 64.1908 0.203247 64.2807 0.203182 64.3733C0.203472 64.563 0.204678 64.7527 0.206734 64.9424C0.209671 65.2333 0.209286 65.5241 0.208462 65.815C0.209156 65.9993 0.210037 66.1836 0.211132 66.3679C0.211018 66.4551 0.210907 66.5424 0.210789 66.6322C0.219795 67.2471 0.219795 67.2471 0.496933 67.5242C0.524609 67.7733 0.551823 68.0227 0.566319 68.2729C0.621151 68.518 0.621151 68.518 0.80748 68.6888C1.0827 68.9869 1.04868 69.2455 1.06368 69.6437C1.09215 70.3554 1.09215 70.3554 1.36646 70.6297C1.44144 70.8945 1.44144 70.8945 1.49068 71.1887C1.5873 71.7201 1.5873 71.7201 1.86334 71.9961C1.86334 72.114 1.86334 72.2318 1.86334 72.3532C1.86334 72.7427 1.899 72.9191 2.11177 73.2383C2.19376 73.2793 2.27575 73.3203 2.36021 73.3625C2.40903 73.7042 2.40903 73.7042 2.42232 74.1001C2.45691 74.8256 2.45691 74.8256 2.73287 75.1016C2.77508 75.388 2.78771 75.6705 2.80226 75.9595C2.85709 76.2195 2.85709 76.2195 3.22974 76.468C3.30178 76.7406 3.30178 76.7406 3.31514 77.0425C3.32739 77.1948 3.32739 77.1948 3.33989 77.3501C3.34454 77.4279 3.34918 77.5058 3.35396 77.586C3.47694 77.6269 3.59991 77.6679 3.72662 77.7102C3.72013 77.8247 3.72013 77.8247 3.71352 77.9416C3.71016 78.042 3.70679 78.1424 3.70333 78.2459C3.69901 78.3453 3.69468 78.4447 3.69023 78.5472C3.73524 78.8947 3.85281 78.9645 4.09927 79.2008C4.15665 79.4424 4.15665 79.4424 4.16138 79.6977C4.18213 80.1542 4.18213 80.1542 4.40934 80.376C4.65645 80.6289 4.64846 80.7939 4.66602 81.1417C4.68204 81.4416 4.68204 81.4416 4.72037 81.6852C4.80235 81.7262 4.88434 81.7672 4.96881 81.8094C5.00724 81.9324 5.04567 82.0553 5.08526 82.182C5.12881 82.305 5.17237 82.428 5.21724 82.5547C5.34022 82.5957 5.4632 82.6367 5.5899 82.6789C5.58702 82.7567 5.58414 82.8346 5.58117 82.9147C5.57893 83.0163 5.57668 83.1178 5.57437 83.2224C5.57149 83.3233 5.56861 83.4241 5.56564 83.5281C5.5899 83.7969 5.5899 83.7969 5.83834 84.0453C6.03318 84.4774 6.20617 84.9006 6.3585 85.3496C6.61358 85.8422 6.88984 86.0893 7.31441 86.4346C7.57179 86.6492 7.79765 86.8764 8.02769 87.1197C8.38279 87.4813 8.7213 87.6973 9.19224 87.8961C9.4719 88.0099 9.4719 88.0099 9.68912 88.1445C9.73011 88.2675 9.7711 88.3905 9.81334 88.5172C9.89532 88.5172 9.97731 88.5172 10.0618 88.5172C10.1028 88.6402 10.1438 88.7632 10.186 88.8899C10.3705 88.959 10.3705 88.959 10.5587 89.0296C11.1416 89.2503 11.4901 89.681 11.8989 90.1369C12.2096 90.4125 12.3926 90.4422 12.7946 90.5047C13.1105 90.7898 13.386 91.0914 13.6641 91.4131C13.9126 91.6227 13.9126 91.6227 14.2542 91.6537C14.3464 91.6435 14.4386 91.6332 14.5336 91.6227C14.5644 91.6944 14.5951 91.7661 14.6268 91.8401C14.8048 92.1605 15.0037 92.3756 15.279 92.6164C15.3609 92.6164 15.4429 92.6164 15.5274 92.6164C15.5684 92.7394 15.6094 92.8624 15.6516 92.9891C15.857 93.0687 16.0625 93.1482 16.2683 93.2268C16.6789 93.4459 16.9593 93.7836 17.2674 94.1269C17.544 94.3824 17.7818 94.4839 18.136 94.6039C18.4115 94.7105 18.4115 94.7105 18.6329 94.8524C18.6739 94.9753 18.7149 95.0983 18.7571 95.225C18.8391 95.225 18.9211 95.225 19.0055 95.225C19.0465 95.348 19.0875 95.471 19.1297 95.5977C19.3149 95.6695 19.3149 95.6695 19.5039 95.7428C20.1649 96.0026 20.6048 96.5036 21.094 97.0029C21.1887 97.0957 21.2834 97.1885 21.381 97.2841C21.8638 97.7703 22.2088 98.1382 22.3594 98.8274C22.4004 98.8684 22.4414 98.9093 22.4837 98.9516C22.4989 99.1383 22.5057 99.3257 22.5092 99.513C22.5116 99.6324 22.5141 99.7517 22.5167 99.8747C22.5187 100.005 22.5208 100.134 22.523 100.268C22.5255 100.4 22.5281 100.532 22.5308 100.669C22.5389 101.093 22.5462 101.517 22.5535 101.941C22.5589 102.227 22.5643 102.514 22.5698 102.801C22.5831 103.505 22.5957 104.21 22.6079 104.914C22.7263 104.968 22.7263 104.968 22.8471 105.022C23.1589 105.192 23.2186 105.338 23.3532 105.659C23.5489 105.855 23.7452 105.801 24.0172 105.803C24.1337 105.804 24.2502 105.805 24.3702 105.806C24.4991 105.806 24.628 105.807 24.7607 105.808C24.8957 105.809 25.0306 105.81 25.1696 105.811C25.6182 105.814 26.0668 105.816 26.5154 105.818C26.7446 105.819 26.7446 105.819 26.9783 105.82C27.7033 105.823 28.4282 105.825 29.1531 105.827C29.9904 105.828 30.8276 105.833 31.6649 105.839C32.3897 105.845 33.1144 105.847 33.8391 105.847C34.1476 105.848 34.4561 105.85 34.7646 105.853C35.1959 105.857 35.627 105.857 36.0583 105.856C36.1865 105.858 36.3146 105.86 36.4466 105.862C36.9592 105.858 37.2845 105.853 37.7175 105.567C37.9893 104.917 37.9557 104.282 37.9511 103.585C37.9519 103.425 37.9528 103.265 37.9537 103.1C37.956 102.661 37.9551 102.223 37.9535 101.784C37.9523 101.324 37.9534 100.865 37.9542 100.406C37.9551 99.6341 37.9539 98.8627 37.9516 98.0912C37.9488 97.1998 37.9497 96.3084 37.9525 95.417C37.9547 94.6511 37.955 93.8852 37.9537 93.1193C37.953 92.6621 37.9529 92.2049 37.9545 91.7477C37.9562 91.238 37.9538 90.7284 37.9511 90.2187C37.9521 90.0674 37.9531 89.9161 37.9541 89.7602C37.9437 88.7309 37.9437 88.7309 37.6401 88.2541C37.5576 88.177 37.475 88.0998 37.3899 88.0203C37.2918 87.6868 37.2918 87.6868 37.2657 87.3992C37.1837 87.3992 37.1017 87.3992 37.0172 87.3992C36.9814 87.2609 36.9455 87.1225 36.9086 86.98C36.7688 86.5297 36.7688 86.5297 36.5204 86.2813C36.4704 86.1083 36.4704 86.1083 36.4194 85.9319C36.2451 85.464 36.0185 85.2467 35.6508 84.9149C35.5817 84.8406 35.5125 84.7663 35.4412 84.6897C35.2782 84.5422 35.2782 84.5422 35.0297 84.5422C34.9888 84.4192 34.9478 84.2962 34.9055 84.1695C34.8235 84.1695 34.7416 84.1695 34.6571 84.1695C34.6238 84.0901 34.5905 84.0107 34.5562 83.9289C34.4087 83.6727 34.4087 83.6727 34.036 83.5485C34.036 83.4665 34.036 83.3845 34.036 83.3C33.8515 83.2232 33.8515 83.2232 33.6633 83.1447C33.1556 82.9273 32.665 82.6806 32.1727 82.4305C32.0318 82.3613 31.8909 82.2921 31.7457 82.2209C31.4435 82.0866 31.4435 82.0866 31.3032 81.9336C31.1469 81.9182 30.9906 81.9029 30.8296 81.887C30.371 81.836 30.1801 81.7151 29.8126 81.4367C29.5213 81.3567 29.2306 81.2971 28.9338 81.2417C28.6949 81.2108 28.6949 81.2108 28.5704 81.0641C28.4115 81.0487 28.2527 81.0333 28.089 81.0175C27.694 80.9858 27.694 80.9858 27.3903 80.7535C27.1151 80.4783 26.8208 80.5146 26.4489 80.4813C26.1271 80.4296 25.9572 80.2806 25.7133 80.0703C25.5077 79.9842 25.3008 79.9008 25.0922 79.8219C25.0513 79.7809 25.0103 79.7399 24.968 79.6977C24.7611 79.6926 24.5539 79.6924 24.3469 79.6977C24.3218 79.6215 24.2967 79.5452 24.2708 79.4667C24.024 79.0858 23.7582 79.0534 23.3299 78.9213C22.6031 78.6654 22.2623 78.3993 21.8077 77.7917C21.5061 77.4711 21.1668 77.4948 20.7446 77.4617C20.583 77.2215 20.583 77.2215 20.4961 76.9649C20.3732 76.9239 20.2502 76.8829 20.1235 76.8406C20.1235 76.7587 20.1235 76.6767 20.1235 76.5922C19.922 76.3798 19.7143 76.1732 19.5024 75.9711C19.4332 75.8968 19.3641 75.8225 19.2928 75.746C19.1297 75.5985 19.1297 75.5985 18.8813 75.5985C18.8352 75.4908 18.8352 75.4908 18.7881 75.3811C18.6101 75.0607 18.4112 74.8455 18.136 74.6047C18.054 74.6047 17.972 74.6047 17.8876 74.6047C17.8876 74.5227 17.8876 74.4407 17.8876 74.3563C17.8056 74.3563 17.7236 74.3563 17.6391 74.3563C17.593 74.2487 17.593 74.2487 17.546 74.1389C17.3679 73.8185 17.169 73.6033 16.8938 73.3625C16.8118 73.3625 16.7298 73.3625 16.6454 73.3625C16.6631 73.1951 16.6631 73.1951 16.6813 73.0243C16.6454 72.6172 16.6454 72.6172 16.3998 72.3304C16.2913 72.2432 16.1827 72.1559 16.0709 72.066C15.6048 71.675 15.1959 71.2894 14.8136 70.817C14.7622 70.7552 14.7108 70.6934 14.6579 70.6297C14.6075 70.5654 14.5571 70.501 14.5052 70.4348C14.1976 70.1863 13.9833 70.2089 13.5913 70.2076C13.3872 70.2068 13.3872 70.2068 13.1789 70.2061C13.0367 70.2075 12.8945 70.209 12.748 70.2105C12.6068 70.209 12.4655 70.2076 12.32 70.2061C12.1836 70.2066 12.0472 70.2071 11.9066 70.2076C11.7199 70.2082 11.7199 70.2082 11.5294 70.2088C11.125 70.2646 10.8937 70.4019 10.5587 70.6297C10.3939 70.7143 10.2286 70.7978 10.0618 70.8781C10.0618 70.9601 10.0618 71.0421 10.0618 71.1266C9.9388 71.1676 9.81582 71.2086 9.68912 71.2508C9.55633 71.5368 9.43177 71.8268 9.31646 72.1203C9.27547 72.1613 9.23448 72.2023 9.19224 72.2445C9.15734 72.5327 9.13662 72.8208 9.11509 73.1102C9.09956 73.1935 9.08403 73.2767 9.06803 73.3625C8.98604 73.4035 8.90406 73.4445 8.81959 73.4867C8.86314 73.6123 8.9067 73.7378 8.95157 73.8672C9.09153 74.3467 9.04384 74.7356 8.94381 75.2258C8.69785 75.1438 8.4519 75.0618 8.19849 74.9774C8.20142 74.7442 8.20142 74.7442 8.20441 74.5063C8.21115 73.9294 8.21543 73.3525 8.21896 72.7756C8.22084 72.526 8.22338 72.2763 8.22661 72.0267C8.23113 71.6678 8.23324 71.3089 8.23489 70.95C8.23681 70.8384 8.23873 70.7268 8.24072 70.6119C8.24088 70.0169 8.21812 69.7285 7.82584 69.2633C7.76341 68.8914 7.76341 68.8914 7.76227 68.4811C7.75787 68.3314 7.75347 68.1817 7.74893 68.0274C7.74473 67.7937 7.74473 67.7937 7.74044 67.5553C7.73619 67.3976 7.73195 67.2398 7.72758 67.0773C7.71733 66.688 7.70874 66.2988 7.70162 65.9094C7.57864 65.8684 7.45567 65.8274 7.32896 65.7852C7.33977 65.5426 7.33977 65.5426 7.3508 65.2951C7.35663 65.0806 7.36228 64.8661 7.36778 64.6517C7.37559 64.4922 7.37559 64.4922 7.38355 64.3295C7.39375 63.799 7.39132 63.4257 7.04607 63.0048C6.93447 62.8975 6.82286 62.7902 6.70787 62.6797C6.62621 62.5958 6.54454 62.5119 6.4604 62.4254C5.93616 61.9512 5.54258 61.6926 4.84459 61.5617C4.84459 61.4797 4.84459 61.3978 4.84459 61.3133ZM9.06803 75.5985C9.27877 75.8208 9.27877 75.8208 9.44068 76.0953C9.39969 76.2183 9.3587 76.3413 9.31646 76.468C9.19349 76.386 9.07051 76.304 8.94381 76.2195C8.91271 75.8986 8.91271 75.8986 8.94381 75.5985C8.9848 75.5985 9.02579 75.5985 9.06803 75.5985ZM10.3131 77.2007C10.5072 77.4051 10.7013 77.6095 10.8954 77.814C11.1518 78.0564 11.354 78.1972 11.6766 78.3313C11.6766 78.4132 11.6766 78.4952 11.6766 78.5797C11.7484 78.6104 11.8201 78.6412 11.894 78.6729C12.2144 78.8509 12.4295 79.0498 12.6704 79.325C12.6704 79.407 12.6704 79.489 12.6704 79.5735C12.7498 79.6093 12.8292 79.6452 12.911 79.6821C13.1861 79.8006 13.1861 79.8006 13.2915 80.0703C13.2095 80.0703 13.1275 80.0703 13.043 80.0703C13.043 80.1933 13.043 80.3163 13.043 80.443C12.6221 80.2711 12.4667 80.1137 12.2589 79.7132C12.0005 79.2765 11.7637 79.0575 11.3001 78.8267C10.5931 78.4718 9.89471 78.0851 9.5649 77.3375C9.64688 77.2145 9.72887 77.0916 9.81334 76.9649C10.089 76.9365 10.089 76.9365 10.3131 77.2007ZM13.5399 80.1945C13.5399 80.3175 13.5399 80.4405 13.5399 80.5672C13.6629 80.6082 13.7859 80.6492 13.9126 80.6914C14.1004 80.9141 14.1004 80.9141 14.2852 81.1883C14.8479 81.9386 15.615 82.7495 16.5212 83.0516C16.6725 83.3627 16.6725 83.3627 16.7696 83.6727C16.8516 83.6727 16.9336 83.6727 17.018 83.6727C17.1862 83.8776 17.3518 84.0848 17.5149 84.2938C17.6379 84.3553 17.6379 84.3553 17.7633 84.418C17.7633 84.5 17.7633 84.582 17.7633 84.6664C17.8428 84.6997 17.9222 84.733 18.004 84.7673C18.3014 84.9008 18.3014 84.9008 18.3844 85.2875C18.4664 85.2875 18.5484 85.2875 18.6329 85.2875C18.6739 85.5335 18.7149 85.7794 18.7571 86.0328C18.8801 86.0738 19.003 86.1148 19.1297 86.157C19.1707 86.0751 19.2117 85.9931 19.254 85.9086C19.3231 85.9778 19.3923 86.047 19.4636 86.1182C19.5584 86.213 19.6532 86.3078 19.7508 86.4055C19.8508 86.508 19.9507 86.6104 20.0536 86.716C20.3719 87.0266 20.3719 87.0266 20.7213 87.2983C20.811 87.3726 20.9006 87.4469 20.993 87.5235C20.993 87.6054 20.993 87.6874 20.993 87.7719C21.0673 87.8078 21.1416 87.8436 21.2182 87.8806C21.5139 88.0262 21.5139 88.0262 21.8626 88.2688C21.8626 88.3507 21.8626 88.4327 21.8626 88.5172C21.9445 88.5172 22.0265 88.5172 22.111 88.5172C22.175 88.6248 22.2391 88.7324 22.3051 88.8433C22.5977 89.3122 22.9976 89.5501 23.4624 89.8346C23.7117 89.9985 23.9063 90.1527 24.0985 90.3805C24.0985 90.4625 24.0985 90.5445 24.0985 90.6289C24.1805 90.6289 24.2625 90.6289 24.3469 90.6289C24.2649 90.7929 24.183 90.9569 24.0985 91.1258C23.9345 91.1258 23.7706 91.1258 23.6016 91.1258C23.5606 90.9618 23.5196 90.7979 23.4774 90.6289C23.3134 90.6289 23.1495 90.6289 22.9805 90.6289C22.6674 90.3469 22.6674 90.3469 22.3594 90.0078C22.2441 89.9182 22.1288 89.8285 22.0101 89.7361C21.9204 89.6618 21.8307 89.5875 21.7383 89.511C21.7383 89.429 21.7383 89.347 21.7383 89.2625C21.6564 89.2625 21.5744 89.2625 21.4899 89.2625C21.4771 89.1831 21.4643 89.1037 21.4511 89.0218C21.4229 88.9373 21.3947 88.8527 21.3657 88.7656C21.1812 88.7042 21.1812 88.7042 20.993 88.6414C20.952 88.5594 20.911 88.4775 20.8688 88.393C20.6843 88.3315 20.6843 88.3315 20.4961 88.2688C20.4961 88.1458 20.4961 88.0228 20.4961 87.8961C20.3117 87.8346 20.3117 87.8346 20.1235 87.7719C20.0364 87.6085 19.9539 87.4426 19.8751 87.275C19.712 87.0576 19.712 87.0576 19.5024 86.9024C19.2954 86.8972 19.0883 86.8972 18.8813 86.9024C18.7583 86.8204 18.6354 86.7384 18.5086 86.6539C18.5086 86.5719 18.5086 86.49 18.5086 86.4055C18.4267 86.4055 18.3447 86.4055 18.2602 86.4055C17.8662 85.9622 17.6998 85.4697 17.5149 84.9149C17.3053 84.7984 17.3053 84.7984 17.018 84.6664C16.3118 84.2972 15.981 83.7794 15.5318 83.1302C15.2035 82.7056 14.8569 82.471 14.4094 82.182C14.4094 82.1001 14.4094 82.0181 14.4094 81.9336C14.3274 81.9336 14.2455 81.9336 14.161 81.9336C14.161 81.8516 14.161 81.7696 14.161 81.6852C14.0662 81.6544 13.9714 81.6237 13.8737 81.592C13.5037 81.4199 13.3573 81.2988 13.1672 80.9399C13.2002 80.5667 13.2707 80.4637 13.5399 80.1945ZM19.6266 87.3992C19.6676 87.4812 19.7086 87.5632 19.7508 87.6477C19.6689 87.6477 19.5869 87.6477 19.5024 87.6477C19.5434 87.5657 19.5844 87.4837 19.6266 87.3992Z" fill="#0FA9FF"/>
<path d="M45.9107 16.4217C45.5973 16.4237 45.284 16.4218 44.9705 16.4194C42.7282 16.4165 40.9844 17.0648 39.0049 18.0852C39.0049 18.1672 39.0049 18.2491 39.0049 18.3336C38.905 18.349 38.905 18.349 38.803 18.3647C38.3995 18.4921 38.0996 18.702 37.7627 18.9547C37.7627 19.0367 37.7627 19.1187 37.7627 19.2031C37.6628 19.2454 37.6628 19.2454 37.5609 19.2885C37.1634 19.5082 36.8571 19.7667 36.5205 20.0727C36.5205 20.1547 36.5205 20.2366 36.5205 20.3211C36.4385 20.3211 36.3566 20.3211 36.2721 20.3211C35.7752 20.8764 35.7752 20.8764 35.7752 21.1906C35.6932 21.1906 35.6112 21.1906 35.5268 21.1906C35.3666 21.3678 35.3666 21.3678 35.2007 21.6021C35.1453 21.6785 35.0899 21.7549 35.0328 21.8336C34.9057 22.0602 34.9057 22.0602 34.9057 22.4328C34.8237 22.4328 34.7417 22.4328 34.6572 22.4328C33.9296 23.6806 33.2787 24.9501 33.1666 26.4078C33.1256 26.4488 33.0846 26.4898 33.0424 26.532C32.4432 29.9421 33.0831 33.4949 34.9983 36.3749C35.4092 36.952 35.897 37.4592 36.3963 37.9602C36.5017 38.0665 36.607 38.1728 36.7156 38.2824C38.7195 40.267 41.3789 41.7274 44.2478 41.7241C44.353 41.7246 44.4581 41.7252 44.5665 41.7257C44.7875 41.7264 45.0085 41.7265 45.2294 41.726C45.5631 41.7256 45.8966 41.7285 46.2302 41.7316C47.7441 41.7371 49.0409 41.5859 50.433 40.9414C50.5184 40.9131 50.6037 40.8847 50.6916 40.8555C52.0579 40.3865 53.342 39.4221 54.408 38.457C54.408 38.3751 54.408 38.2931 54.408 38.2086C54.531 38.1676 54.654 38.1266 54.7807 38.0844C54.7807 38.0024 54.7807 37.9204 54.7807 37.836C54.8627 37.836 54.9446 37.836 55.0291 37.836C55.1999 37.646 55.3616 37.4477 55.5182 37.2459C55.6467 37.0816 55.6467 37.0816 55.7778 36.914C55.8587 36.8083 55.9396 36.7027 56.0229 36.5938C56.0948 36.506 56.1667 36.4183 56.2407 36.3279C56.3955 36.0969 56.3955 36.0969 56.3955 35.7242C56.4775 35.7242 56.5595 35.7242 56.644 35.7242C56.7995 35.4409 56.9514 35.1562 57.102 34.8702C57.1442 34.7942 57.1864 34.7181 57.2299 34.6397C58.0896 32.9846 58.3635 31.2225 58.3398 29.3783C58.3364 29.0703 58.3398 28.7628 58.3437 28.4548C58.3477 26.6926 57.9934 25.0517 57.1486 23.4887C57.106 23.4069 57.0634 23.3252 57.0196 23.241C56.6863 22.6114 56.3232 22.0117 55.8986 21.4391C55.8226 21.335 55.7465 21.2309 55.6682 21.1237C55.2302 20.5403 55.2302 20.5403 55.0291 20.3211C54.9471 20.3211 54.8651 20.3211 54.7807 20.3211C54.7397 20.1981 54.6987 20.0752 54.6565 19.9485C54.5745 19.9485 54.4925 19.9485 54.408 19.9485C54.408 19.8665 54.408 19.7845 54.408 19.7C54.1994 19.5127 54.1994 19.5127 53.9267 19.3118C53.8373 19.2449 53.748 19.178 53.6559 19.109C53.4143 18.9547 53.4143 18.9547 53.1658 18.9547C53.1658 18.8727 53.1658 18.7907 53.1658 18.7063C52.2794 18.0644 51.339 17.5792 50.3088 17.2156C50.2265 17.183 50.1442 17.1503 50.0594 17.1167C49.8131 17.019 49.5651 16.9305 49.3151 16.843C49.1836 16.7948 49.1836 16.7948 49.0496 16.7457C48.0091 16.4109 46.9921 16.4136 45.9107 16.4217Z" fill="#0FA9FF"/>
<path d="M49.9144 58.9357C49.7608 58.9346 49.7608 58.9346 49.6041 58.9335C49.4928 58.9334 49.3816 58.9333 49.2669 58.9331C49.0899 58.9322 49.0899 58.9322 48.9093 58.9313C48.5192 58.9294 48.1291 58.9286 47.7389 58.9279C47.4679 58.9272 47.1969 58.9265 46.9258 58.9258C46.3578 58.9245 45.7897 58.9237 45.2217 58.9233C44.4932 58.9226 43.7647 58.9196 43.0362 58.9161C42.4765 58.9138 41.9169 58.9131 41.3572 58.9129C41.0886 58.9126 40.8199 58.9116 40.5513 58.9099C40.176 58.9078 39.8008 58.9081 39.4255 58.9089C39.3142 58.9077 39.203 58.9066 39.0883 58.9054C38.5206 58.9092 38.192 58.9186 37.7626 59.3258C37.4736 59.4114 37.1837 59.4941 36.8931 59.5742C36.1744 59.8937 36.1744 59.8937 36.0236 60.1953C35.8621 60.2056 35.7007 60.2158 35.5344 60.2264C34.7826 60.2964 34.2778 60.6493 33.6634 61.0649C33.5339 61.1497 33.4043 61.2346 33.2708 61.322C32.23 62.0075 32.23 62.0075 31.9517 62.256C31.5882 62.487 31.3355 62.4789 30.9068 62.4817C30.7588 62.4845 30.6107 62.4872 30.4582 62.49C30.1464 62.4922 29.8345 62.4945 29.5227 62.4968C29.3748 62.4995 29.2269 62.5022 29.0746 62.505C28.9392 62.5059 28.8038 62.5068 28.6643 62.5077C28.271 62.5626 28.1889 62.6228 27.9493 62.9281C27.9125 63.3097 27.8985 63.6661 27.9011 64.0478C27.9001 64.2196 27.9001 64.2196 27.8991 64.3949C27.8975 64.7743 27.8986 65.1535 27.8998 65.5329C27.8996 65.796 27.8992 66.0592 27.8988 66.3223C27.8982 66.8741 27.899 67.4258 27.9008 67.9776C27.9029 68.6857 27.9017 69.3937 27.8994 70.1017C27.8981 70.6452 27.8985 71.1887 27.8995 71.7321C27.8997 71.9932 27.8994 72.2543 27.8985 72.5155C27.8976 72.8801 27.899 73.2446 27.9011 73.6093C27.9004 73.7177 27.8996 73.8261 27.8988 73.9378C27.9066 74.6756 27.9066 74.6756 28.1231 74.9459C28.322 75.1016 28.322 75.1016 28.5704 75.1016C28.5499 75.1656 28.5294 75.2297 28.5083 75.2957C28.3971 75.8378 28.3558 76.2953 28.617 76.7941C28.6836 76.8914 28.7502 76.9888 28.8189 77.0891C28.8522 77.1916 28.8855 77.294 28.9198 77.3996C29.1287 77.8395 29.431 78.0309 29.8126 78.3313C29.8536 78.4133 29.8946 78.4952 29.9368 78.5797C30.0188 78.5797 30.1008 78.5797 30.1853 78.5797C30.1853 78.6617 30.1853 78.7437 30.1853 78.8281C30.5437 79.2269 30.8799 79.5511 31.4197 79.62C31.5042 79.6047 31.5888 79.5893 31.6759 79.5735C31.7169 79.6964 31.7579 79.8194 31.8001 79.9461C32.8249 79.9461 33.8497 79.9461 34.9056 79.9461C34.9466 79.8231 34.9876 79.7002 35.0298 79.5735C35.163 79.5632 35.2963 79.553 35.4335 79.5424C35.9339 79.4423 36.0934 79.3521 36.3962 78.9524C36.3962 78.8704 36.3962 78.7884 36.3962 78.7039C36.4766 78.6746 36.557 78.6453 36.6398 78.6151C36.8931 78.4555 36.8931 78.4555 36.96 78.191C36.9636 78.0913 36.9671 77.9915 36.9707 77.8887C36.9782 77.5939 36.9782 77.5939 37.0173 77.3375C37.0993 77.2965 37.1813 77.2555 37.2657 77.2133C37.4324 76.5609 37.402 75.8997 37.3927 75.2317C37.3914 75.1072 37.3902 74.9828 37.389 74.8546C37.3849 74.4533 37.3799 74.052 37.3749 73.6507C37.3723 73.4024 37.3697 73.154 37.3671 72.9056C37.3574 71.9865 37.3464 71.0674 37.3356 70.1484C37.3126 68.0936 37.2895 66.0389 37.2657 63.9219C42.6767 63.9219 48.0877 63.9219 53.6626 63.9219C53.6528 68.4076 53.6528 68.4076 53.6402 72.8932C53.6391 73.7595 53.6391 73.7595 53.6389 74.1646C53.6385 74.4484 53.6376 74.7322 53.6364 75.0161C53.6346 75.4452 53.6343 75.8743 53.6344 76.3034C53.6335 76.4305 53.6326 76.5577 53.6317 76.6886C53.632 76.8037 53.6324 76.9188 53.6327 77.0373C53.6325 77.1379 53.6323 77.2384 53.632 77.342C53.6626 77.586 53.6626 77.586 53.9111 77.8344C53.9476 77.9311 53.9841 78.0278 54.0217 78.1275C54.2569 78.6874 54.6821 79.0758 55.1532 79.4492C55.588 79.5735 55.588 79.5735 55.8986 79.5735C55.9395 79.6964 55.9805 79.8194 56.0228 79.9461C56.5352 79.9533 57.0476 79.9577 57.56 79.9616C57.706 79.9637 57.8521 79.9658 58.0025 79.9679C58.2115 79.9691 58.2115 79.9691 58.4247 79.9704C58.5535 79.9717 58.6823 79.973 58.815 79.9743C59.1282 79.9461 59.1282 79.9461 59.3767 79.6977C59.4851 79.67 59.5935 79.6423 59.7052 79.6137C60.2902 79.3829 60.6423 79.0013 61.0769 78.5564C61.1593 78.476 61.2417 78.3955 61.3266 78.3126C61.8259 77.8093 62.1182 77.3831 62.3579 76.7164C62.3989 76.6754 62.4399 76.6344 62.4821 76.5922C62.4911 76.3413 62.4926 76.0902 62.4899 75.8391C62.4888 75.7019 62.4877 75.5647 62.4865 75.4233C62.4851 75.3171 62.4836 75.211 62.4821 75.1016C62.6461 75.0196 62.8101 74.9376 62.979 74.8531C62.9876 73.2864 62.9943 71.7197 62.9983 70.1529C63.0003 69.4255 63.0029 68.6981 63.0071 67.9706C63.0112 67.2691 63.0134 66.5676 63.0144 65.8661C63.0151 65.5979 63.0164 65.3298 63.0184 65.0617C63.0211 64.6872 63.0215 64.3127 63.0213 63.9382C63.0227 63.8264 63.024 63.7147 63.0254 63.5995C63.0238 63.2912 63.0238 63.2912 62.979 62.8039C62.5762 62.5354 62.448 62.5226 61.9809 62.5128C61.8599 62.5091 61.739 62.5054 61.6143 62.5016C61.3591 62.4961 61.1039 62.4906 60.8486 62.4851C60.7278 62.4814 60.607 62.4778 60.4825 62.474C60.3717 62.4716 60.2609 62.4693 60.1467 62.4669C59.848 62.4562 59.848 62.4562 59.6251 62.1828C59.3767 62.1 59.1282 62.0172 58.8798 61.9344C58.7978 61.8524 58.7158 61.7704 58.6314 61.686C58.3433 61.5973 58.0531 61.5152 57.7618 61.4375C57.3533 61.3326 57.3533 61.3326 57.0165 61.1891C56.955 61.0046 56.955 61.0046 56.8923 60.8164C56.589 60.6388 56.589 60.6388 56.2013 60.4593C55.7446 60.2425 55.3189 60.027 54.9048 59.7373C53.8185 59.0472 52.6025 59.0398 51.3607 59.0764C50.9577 59.0949 50.9577 59.0949 50.6868 59.0164C50.4197 58.9498 50.1893 58.9368 49.9144 58.9357Z" fill="#0FA9FF"/>
<path d="M56.8612 38.752C56.443 38.9992 56.2013 39.3024 55.8912 39.672C55.216 40.4437 54.4543 41.0159 53.5685 41.5237C53.2401 41.7159 52.9472 41.9238 52.6688 42.1836C52.6688 42.2656 52.6688 42.3476 52.6688 42.432C52.5715 42.4269 52.4741 42.4218 52.3738 42.4165C52.0477 42.432 52.0477 42.432 51.7993 42.6805C51.5529 42.7692 51.3045 42.8527 51.054 42.9289C51.054 43.0109 51.054 43.0929 51.054 43.1773C50.9413 43.1902 50.8285 43.203 50.7124 43.2162C50.3087 43.3016 50.3087 43.3016 50.0758 43.4879C49.6767 43.7696 49.301 43.7582 48.8181 43.7984C48.8181 43.8804 48.8181 43.9624 48.8181 44.0469C48.7327 44.0515 48.6474 44.0562 48.5594 44.0609C48.4475 44.0691 48.3356 44.0773 48.2203 44.0857C48.0538 44.0965 48.0538 44.0965 47.884 44.1075C47.5759 44.1711 47.5759 44.1711 47.3963 44.3584C47.1062 44.6368 46.8437 44.5988 46.4501 44.6136C45.7385 44.6421 45.7385 44.6421 45.4642 44.9164C45.3412 44.7934 45.3412 44.7934 45.2157 44.668C44.8365 44.6249 44.4601 44.6129 44.0788 44.5986C43.6802 44.5368 43.6142 44.4566 43.3524 44.1711C43.1074 44.1163 43.1074 44.1163 42.8478 44.1012C42.3585 44.0984 42.3585 44.0984 42.1102 43.7984C41.8611 43.7708 41.6118 43.7435 41.3615 43.729C41.0526 43.6599 40.9595 43.5283 40.7438 43.3016C40.4804 43.1565 40.4804 43.1565 40.1926 43.0298C40.098 42.9871 40.0033 42.9443 39.9058 42.9003C39.6259 42.8047 39.6259 42.8047 39.129 42.8047C39.0957 42.7304 39.0624 42.6561 39.0281 42.5795C38.8744 42.2964 38.7607 42.1338 38.5079 41.9352C38.3969 41.9071 38.286 41.8791 38.1716 41.8502C37.5541 41.6034 37.203 41.1503 36.7618 40.6665C36.4253 40.3106 36.1484 40.0451 35.6887 39.8632C35.2788 39.6995 35.1157 39.583 34.8512 39.2412C34.7899 39.1638 34.7286 39.0865 34.6654 39.0068C34.6217 38.9483 34.5779 38.8899 34.5329 38.8297C33.6896 38.9087 33.0387 39.428 32.4755 40.0253C32.0849 40.4372 31.7083 40.6055 31.179 40.8172C31.0432 40.9211 30.9111 41.03 30.783 41.1433C30.4733 41.45 30.4733 41.45 30.1697 41.5004C29.8013 41.5986 29.6653 41.8878 29.4399 42.1836C29.3016 42.2874 29.3016 42.2874 29.1604 42.3932C29.0528 42.4739 29.0528 42.4739 28.9431 42.5562C28.9431 42.6382 28.9431 42.7202 28.9431 42.8047C28.7778 42.8162 28.7778 42.8162 28.6092 42.828C28.1019 42.9524 27.9062 43.1526 27.5767 43.55C27.5767 43.632 27.5767 43.714 27.5767 43.7984C27.4654 43.7872 27.3541 43.776 27.2394 43.7645C26.7193 43.8078 26.6042 43.9568 26.2646 44.3419C25.89 44.7626 25.6242 44.9803 25.0923 45.1648C24.9693 45.2468 24.8463 45.3288 24.7196 45.4133C24.7196 45.4953 24.7196 45.5772 24.7196 45.6617C24.6376 45.6617 24.5557 45.6617 24.4712 45.6617C24.3636 45.8077 24.3636 45.8077 24.2538 45.9567C24.0043 46.3076 24.0043 46.3076 23.6327 46.3837C23.0346 46.6023 22.617 47.0194 22.2352 47.525C22.1917 47.7316 22.1501 47.9386 22.111 48.1461C22.0491 48.2018 21.9872 48.2576 21.9234 48.315C21.6774 48.5858 21.6951 48.7373 21.702 49.0986C21.7032 49.2095 21.7044 49.3204 21.7056 49.4346C21.7087 49.55 21.7119 49.6654 21.7151 49.7842C21.7168 49.901 21.7184 50.0178 21.7202 50.1382C21.7246 50.4266 21.7307 50.7148 21.7384 51.0031C21.818 51.0393 21.8975 51.0755 21.9795 51.1128C22.2517 51.2289 22.2517 51.2289 22.3517 51.4845C22.5304 51.8418 22.7888 52.0064 23.1048 52.2453C23.1663 52.3119 23.2278 52.3785 23.2911 52.4472C23.5337 52.6696 23.7934 52.749 24.0985 52.8664C24.1805 52.9484 24.2625 53.0304 24.347 53.1148C25.076 53.2188 25.7574 53.2023 26.3762 52.7815C27.1509 52.1686 27.8349 51.4936 28.5093 50.7717C28.8526 50.4773 29.1353 50.3865 29.5642 50.2578C29.898 49.955 29.898 49.955 30.1852 49.6367C30.2595 49.5675 30.3338 49.4984 30.4104 49.4271C30.5579 49.2641 30.5579 49.2641 30.5579 49.0156C30.6809 48.9746 30.8039 48.9336 30.9306 48.8914C30.9306 48.8094 30.9306 48.7274 30.9306 48.643C30.9999 48.609 31.0692 48.5751 31.1407 48.5401C31.4457 48.3853 31.7439 48.2231 32.0408 48.0529C32.1444 47.9946 32.248 47.9364 32.3547 47.8763C32.7449 47.5949 32.9877 47.2773 33.2907 46.9039C33.2938 47.0531 33.2969 47.2023 33.3001 47.3561C33.3118 47.9084 33.3243 48.4608 33.337 49.0131C33.3424 49.2524 33.3475 49.4917 33.3525 49.731C33.3596 50.0745 33.3676 50.418 33.3756 50.7615C33.3777 50.8689 33.3798 50.9763 33.3819 51.0869C33.4008 51.8444 33.4008 51.8444 33.5392 52.1211C34.9634 52.1884 34.9634 52.1884 35.5267 51.7484C35.6496 51.7074 35.7726 51.6664 35.8993 51.6242C36.0069 51.4782 36.0069 51.4782 36.1167 51.3292C36.4638 50.9242 36.7689 50.8157 37.2657 50.6305C38.2371 50.2515 38.2371 50.2515 38.5079 49.8852C38.5079 49.8032 38.5079 49.7212 38.5079 49.6367C38.6462 49.6008 38.7846 49.565 38.9271 49.528C39.3774 49.3883 39.3774 49.3883 39.6259 49.1398C39.7911 49.0937 39.7911 49.0937 39.9597 49.0467C40.3433 48.9019 40.4812 48.8108 40.7671 48.542C41.2302 48.1174 41.738 47.8975 42.3145 47.6589C42.6071 47.525 42.6071 47.525 42.8556 47.2766C43.102 47.1879 43.3503 47.1044 43.6009 47.0281C43.6009 46.9461 43.6009 46.8642 43.6009 46.7797C43.6829 46.7797 43.7648 46.7797 43.8493 46.7797C43.8903 46.6977 43.9313 46.6157 43.9735 46.5312C44.1835 46.4448 44.3936 46.3586 44.6043 46.2741C44.9885 46.0882 45.2726 45.8224 45.5884 45.5375C45.6294 45.6195 45.6704 45.7015 45.7126 45.7859C45.9605 45.8703 46.209 45.9531 46.4579 46.0344C46.5809 46.1573 46.5809 46.1573 46.7063 46.2828C46.8011 46.3161 46.8959 46.3494 46.9936 46.3837C47.3511 46.5169 47.3511 46.5169 47.6302 46.8418C47.9838 47.1867 48.2333 47.2473 48.6938 47.4008C48.8437 47.5507 48.8437 47.5507 48.9966 47.7036C49.3686 48.0756 49.6992 48.1972 50.1845 48.3945C50.4503 48.554 50.7091 48.721 50.9671 48.8929C51.1782 49.0156 51.1782 49.0156 51.4267 49.0156C51.4676 49.1386 51.5086 49.2616 51.5509 49.3883C51.8361 49.5228 52.1266 49.6464 52.4204 49.7609C52.5588 49.834 52.5588 49.834 52.6999 49.9084C52.9173 50.0094 52.9173 50.0094 53.2899 50.0094C53.2899 50.0914 53.2899 50.1733 53.2899 50.2578C53.6737 50.7337 54.0943 50.9082 54.6563 51.1273C55.2623 51.3601 55.2623 51.3601 55.7743 51.7484C56.0213 51.7978 56.2699 51.8401 56.5196 51.8727C56.5196 51.9546 56.5196 52.0366 56.5196 52.1211C56.9389 52.1444 56.9389 52.1444 57.3892 52.1211C57.6451 51.7372 57.6684 51.6603 57.6658 51.2272C57.6658 51.1228 57.6658 51.0184 57.6657 50.9108C57.6645 50.7986 57.6632 50.6864 57.6618 50.5708C57.6615 50.4555 57.6611 50.3402 57.6608 50.2215C57.6594 49.8531 57.6563 49.4849 57.6531 49.1165C57.6519 48.8669 57.6507 48.6172 57.6497 48.3676C57.647 47.7555 57.6427 47.1434 57.6376 46.5312C57.7349 46.6337 57.8323 46.7362 57.9326 46.8418C58.2587 47.1523 58.2587 47.1523 58.5071 47.1523C58.5071 47.2343 58.5071 47.3163 58.5071 47.4008C58.5891 47.4008 58.6711 47.4008 58.7556 47.4008C58.7556 47.4828 58.7556 47.5647 58.7556 47.6492C58.9597 47.8184 59.1674 47.9833 59.3767 48.1461C59.5861 48.3507 59.7935 48.5574 59.9977 48.7672C60.3554 49.1248 60.7658 49.2302 61.2399 49.3883C61.325 49.5528 61.4075 49.7186 61.4884 49.8852C61.7368 50.1646 61.7368 50.1646 61.9852 50.382C62.0672 50.382 62.1492 50.382 62.2337 50.382C62.267 50.4563 62.3003 50.5306 62.3346 50.6072C62.5694 51.0397 62.7327 51.2144 63.2119 51.3603C63.6797 51.5287 63.8853 51.7594 64.2212 52.1211C64.6568 52.512 65.0232 52.7089 65.5876 52.8664C65.5876 52.9484 65.5876 53.0304 65.5876 53.1148C65.8282 53.1216 66.0689 53.1264 66.3096 53.1304C66.5106 53.1347 66.5106 53.1347 66.7157 53.1391C67.0782 53.1148 67.0782 53.1148 67.4509 52.8664C67.4509 52.7844 67.4509 52.7024 67.4509 52.618C67.5534 52.618 67.6558 52.618 67.7614 52.618C68.4116 52.4322 68.7964 52.0423 69.1899 51.5C69.2973 51.2007 69.3563 50.9309 69.3947 50.6159C69.4211 50.3525 69.4211 50.3525 69.6868 50.1336C69.7242 49.8507 69.7242 49.8507 69.7256 49.5203C69.7277 49.4115 69.7298 49.3028 69.7319 49.1908C69.6775 48.83 69.569 48.7658 69.3142 48.5187C69.2899 48.3706 69.2899 48.3706 69.2651 48.2194C69.1622 47.7791 68.9507 47.6341 68.6077 47.3464C68.2287 47.0236 67.8703 46.7061 67.5363 46.3372C67.2024 46.0344 67.2024 46.0344 66.8453 45.9878C66.7582 46.0032 66.6711 46.0185 66.5813 46.0344C66.5506 45.9626 66.5199 45.8909 66.4882 45.817C66.3102 45.4966 66.1113 45.2815 65.836 45.0406C65.754 45.0406 65.6721 45.0406 65.5876 45.0406C65.5543 44.9663 65.521 44.892 65.4867 44.8155C65.333 44.5324 65.2193 44.3697 64.9665 44.1711C64.8512 44.1378 64.7359 44.1045 64.6171 44.0702C64.2242 43.9238 64.1179 43.8392 63.8485 43.5422C63.5057 43.1694 63.2465 43.0777 62.7306 43.0531C62.7306 42.9711 62.7306 42.8892 62.7306 42.8047C62.5598 42.6028 62.5598 42.6028 62.3579 42.432C62.2759 42.432 62.1939 42.432 62.1095 42.432C62.048 42.2476 62.048 42.2476 61.9852 42.0594C61.7777 42.044 61.7777 42.044 61.566 42.0283C61.4174 41.9976 61.2688 41.9668 61.1157 41.9352C60.9573 41.7116 60.9573 41.7116 60.8673 41.4383C60.6188 41.1588 60.6188 41.1588 60.3704 40.9414C60.2884 40.9414 60.2064 40.9414 60.122 40.9414C60.0605 40.7569 60.0605 40.7569 59.9977 40.5687C59.885 40.5329 59.7723 40.497 59.6561 40.4601C59.2319 40.3461 59.2319 40.3461 58.9341 40.002C58.6045 39.6724 58.4568 39.637 58.0102 39.575C57.9693 39.493 57.9283 39.411 57.886 39.3266C57.804 39.3266 57.7221 39.3266 57.6376 39.3266C57.5966 39.2036 57.5556 39.0806 57.5134 38.9539C57.1407 38.7055 57.1407 38.7055 56.8612 38.752Z" fill="#0FA9FF"/>
<path d="M45.5416 48.6041C45.0581 48.6142 44.8309 48.6807 44.4702 49.0156C44.2655 49.104 44.0588 49.1883 43.8491 49.264C43.8491 49.346 43.8491 49.428 43.8491 49.5125C43.5622 49.5535 43.2752 49.5945 42.9796 49.6367C42.9386 49.7597 42.8976 49.8826 42.8553 50.0094C42.6901 50.0209 42.6901 50.0209 42.5215 50.0326C42.0106 50.158 41.8521 50.3827 41.4889 50.7547C41.2043 50.9065 40.9228 51.0143 40.6194 51.1273C40.6194 51.2093 40.6194 51.2913 40.6194 51.3758C40.3325 51.4167 40.0455 51.4577 39.7499 51.5C39.7499 51.582 39.7499 51.6639 39.7499 51.7484C39.6474 51.7587 39.5449 51.7689 39.4393 51.7795C38.9092 51.8931 38.4838 52.1114 38.0108 52.3695C38.0108 52.4515 38.0108 52.5335 38.0108 52.6179C37.8264 52.6641 37.8264 52.6641 37.6382 52.7111C37.1064 52.8612 36.6332 53.1034 36.1475 53.3633C36.1475 53.4452 36.1475 53.5272 36.1475 53.6117C35.8945 53.7429 35.6463 53.8617 35.3789 53.9611C35.0646 54.0938 34.7824 54.2433 34.4861 54.4114C34.0162 54.677 33.5405 54.8939 33.0421 55.1023C32.7086 55.2638 32.3786 55.4312 32.0483 55.5992C32.0483 55.6812 32.0483 55.7632 32.0483 55.8476C31.9407 55.8604 31.8331 55.8733 31.7222 55.8864C31.2703 55.9785 30.9617 56.1227 30.5577 56.3445C30.4717 56.3866 30.3857 56.4287 30.2971 56.4721C29.5653 56.845 28.9541 57.3074 28.446 57.9594C28.3688 58.2272 28.3688 58.2272 28.3218 58.4562C28.2577 58.5152 28.1937 58.5741 28.1277 58.6348C27.9491 58.8289 27.9491 58.8289 27.8948 59.1317C27.9652 59.5441 28.1505 59.6603 28.446 59.9469C28.4665 60.0493 28.487 60.1518 28.5081 60.2574C28.5908 60.6711 28.7375 60.8065 29.0671 61.0648C29.3135 61.1535 29.5618 61.237 29.8124 61.3133C29.8944 61.3952 29.9763 61.4772 30.0608 61.5617C30.3903 61.6366 30.7056 61.6939 31.039 61.7403C31.1733 61.7642 31.1733 61.7642 31.3103 61.7885C31.5738 61.8252 31.5738 61.8252 32.0483 61.8101C32.3302 61.5243 32.3302 61.5243 32.5452 61.189C32.7744 61.0027 32.7744 61.0027 33.0188 60.863C33.1475 60.7856 33.1475 60.7856 33.2789 60.7067C33.5199 60.5781 33.7572 60.4779 34.0125 60.3816C34.4584 60.1718 34.5868 60.02 34.7811 59.5742C34.7811 59.4922 34.7811 59.4102 34.7811 59.3258C34.8646 59.3152 34.948 59.3046 35.0339 59.2937C35.5064 59.1754 35.9037 58.9552 36.3261 58.7202C36.4863 58.6324 36.6466 58.5448 36.807 58.4572C36.9234 58.3933 36.9234 58.3933 37.0422 58.3281C37.2431 58.2199 37.447 58.1174 37.6513 58.0156C38.0234 57.8288 38.3814 57.6264 38.7406 57.4159C38.8701 57.34 38.9997 57.2641 39.1332 57.1859C39.4381 57.0035 39.7383 56.8162 40.0371 56.624C40.4634 56.3532 40.8954 56.1576 41.3647 55.9719C41.3647 55.8899 41.3647 55.8079 41.3647 55.7234C41.4494 55.713 41.5341 55.7026 41.6214 55.6919C42.0796 55.5754 42.4477 55.3533 42.8476 55.1101C43.3734 54.7916 43.8765 54.5301 44.4702 54.357C44.4702 54.275 44.4702 54.193 44.4702 54.1086C44.6034 54.0727 44.7366 54.0368 44.8739 53.9999C45.2272 53.8939 45.518 53.7901 45.8366 53.6117C45.9058 53.6706 45.9749 53.7295 46.0462 53.7903C46.3563 53.9997 46.5875 54.0576 46.9546 54.1086C46.9546 54.1906 46.9546 54.2725 46.9546 54.357C47.0506 54.4036 47.1467 54.4502 47.2457 54.4982C47.9304 54.8346 48.5904 55.1797 49.2298 55.5958C49.4938 55.7569 49.7718 55.8616 50.06 55.9719C50.183 56.0948 50.183 56.0948 50.3085 56.2203C50.5554 56.2697 50.804 56.3119 51.0538 56.3445C51.0538 56.4265 51.0538 56.5085 51.0538 56.5929C51.2997 56.6339 51.5457 56.6749 51.7991 56.7172C51.7991 56.7991 51.7991 56.8811 51.7991 56.9656C52.0526 57.1029 52.3063 57.24 52.5599 57.3771C52.7012 57.4535 52.8424 57.5298 52.9879 57.6085C53.2642 57.7555 53.543 57.8978 53.8244 58.0346C54.1668 58.1903 54.1668 58.1903 54.4077 58.4562C54.6547 58.5056 54.9033 58.5479 55.153 58.5804C55.153 58.6624 55.153 58.7444 55.153 58.8289C55.2251 58.859 55.2971 58.8891 55.3714 58.9201C55.9644 59.1746 56.4815 59.458 57.0163 59.8226C57.1103 59.8595 57.2043 59.8963 57.3011 59.9342C57.6886 60.0919 58.0313 60.2915 58.3905 60.5058C59.5383 61.189 59.5383 61.189 59.9975 61.189C60.0385 61.312 60.0795 61.435 60.1218 61.5617C60.57 61.6801 60.9144 61.6799 61.3639 61.5617C62.143 61.0868 62.8552 60.3896 63.103 59.5019C63.1249 58.9027 63.1057 58.3772 62.6838 57.9205C62.3577 57.7109 62.3577 57.7109 62.1093 57.7109C62.0593 57.5918 62.0593 57.5918 62.0083 57.4702C61.8608 57.214 61.8608 57.214 61.4882 57.0898C61.4882 57.0078 61.4882 56.9258 61.4882 56.8414C61.3498 56.785 61.2115 56.7287 61.0689 56.6706C60.6234 56.5029 60.6234 56.5029 60.3702 56.2203C60.1228 56.1345 59.8744 56.0515 59.6249 55.9719C59.5839 55.9309 59.5429 55.8899 59.5007 55.8476C59.2937 55.8426 59.0865 55.8423 58.8796 55.8476C58.8463 55.7682 58.813 55.6888 58.7786 55.607C58.6311 55.3508 58.6311 55.3508 58.2585 55.2265C58.2585 55.1446 58.2585 55.0626 58.2585 54.9781C58.1611 54.9525 58.0638 54.9269 57.9635 54.9005C57.4573 54.7085 57.0335 54.4513 56.5772 54.1629C56.2741 53.9862 55.9779 53.8587 55.6499 53.7359C55.0404 53.5031 55.0404 53.5031 54.5319 53.1148C54.2849 53.0654 54.0363 53.0232 53.7866 52.9906C53.7866 52.9086 53.7866 52.8266 53.7866 52.7422C53.6816 52.7114 53.5765 52.6807 53.4683 52.649C53.1346 52.5276 52.8766 52.4078 52.5755 52.2298C52.1718 51.9969 52.1718 51.9969 51.9233 51.9969C51.9233 51.9149 51.9233 51.8329 51.9233 51.7484C51.5795 51.4428 51.2291 51.2946 50.8053 51.1273C50.7234 51.0453 50.6414 50.9634 50.5569 50.8789C50.1538 50.6887 49.7854 50.524 49.3458 50.4441C49.0117 50.3699 48.9262 50.2516 48.6936 50.0094C48.4887 49.9215 48.2811 49.8397 48.0725 49.7609C47.822 49.6408 47.5744 49.5156 47.3267 49.3897C47.1058 49.2777 46.8828 49.1697 46.6595 49.0622C45.7874 48.6054 45.7874 48.6054 45.5416 48.6041Z" fill="#0FA9FF"/>
<path d="M49.2053 66.9952C49.1174 66.9948 49.0295 66.9943 48.939 66.9939C48.6477 66.9928 48.3565 66.9935 48.0652 66.9943C47.8632 66.9942 47.6611 66.9939 47.4591 66.9936C47.0352 66.9933 46.6113 66.9938 46.1875 66.995C45.6439 66.9964 45.1003 66.9956 44.5567 66.9941C44.1393 66.9932 43.7219 66.9935 43.3045 66.9941C43.1041 66.9943 42.9036 66.9941 42.7032 66.9935C42.4231 66.9929 42.143 66.9938 41.8628 66.9952C41.6235 66.9955 41.6235 66.9955 41.3794 66.9958C40.992 67.0273 40.992 67.0273 40.6194 67.2758C40.5714 67.5006 40.5714 67.5006 40.5696 67.7778C40.568 67.8828 40.5664 67.9878 40.5647 68.096C40.5649 68.2114 40.5651 68.3269 40.5652 68.4458C40.564 68.5672 40.5627 68.6886 40.5615 68.8137C40.5579 69.2167 40.5572 69.6197 40.5568 70.0227C40.5556 70.3021 40.5543 70.5816 40.553 70.861C40.5508 71.4476 40.5501 72.0341 40.5503 72.6207C40.5504 73.3726 40.5453 74.1244 40.5389 74.8763C40.5347 75.4538 40.534 76.0312 40.5342 76.6087C40.5337 76.8859 40.5321 77.1631 40.5292 77.4403C40.5255 77.8282 40.5266 78.2158 40.5289 78.6036C40.5257 78.7757 40.5257 78.7757 40.5225 78.9512C40.5335 79.6948 40.5335 79.6948 40.7617 80.0323C41.2099 80.4521 41.615 80.52 42.2094 80.5174C42.2902 80.5179 42.3711 80.5184 42.4545 80.5189C42.7195 80.5197 42.9843 80.5161 43.2493 80.5124C43.4343 80.5118 43.6192 80.5115 43.8041 80.5115C44.1905 80.5107 44.5768 80.5079 44.9631 80.5035C45.4588 80.4978 45.9544 80.496 46.4501 80.4956C46.8314 80.495 47.2127 80.4931 47.594 80.4907C47.7768 80.4896 47.9597 80.4888 48.1425 80.4882C48.3974 80.4871 48.6522 80.4843 48.907 80.481C49.052 80.4797 49.1971 80.4784 49.3465 80.477C49.6874 80.443 49.6874 80.443 49.9358 80.1945C49.9563 80.0895 49.9768 79.9844 49.9979 79.8762C50.0184 79.7763 50.0389 79.6764 50.06 79.5734C50.142 79.5324 50.224 79.4915 50.3084 79.4492C50.3142 77.8663 50.3186 76.2834 50.3213 74.7004C50.3226 73.9655 50.3244 73.2305 50.3272 72.4956C50.3299 71.7868 50.3314 71.078 50.332 70.3693C50.3325 70.0984 50.3334 69.8274 50.3347 69.5565C50.3365 69.1782 50.3368 68.7998 50.3366 68.4215C50.338 68.2521 50.338 68.2521 50.3394 68.0792C50.3361 67.0948 50.1615 66.9964 49.2053 66.9952Z" fill="#0FA9FF"/>
<path d="M13.61 58.0603C13.4603 58.0576 13.4603 58.0576 13.3077 58.0549C13.0432 58.0836 13.0432 58.0836 12.7948 58.332C12.6564 58.3884 12.5181 58.4447 12.3755 58.5028C11.7133 58.7997 11.7133 58.7997 11.4284 59.2015C11.3507 59.6346 11.3534 60.0591 11.3585 60.4981C11.354 60.6735 11.354 60.6735 11.3495 60.8525C11.3508 61.4428 11.3608 61.7215 11.7277 62.2027C12.0495 62.4312 12.0495 62.4312 12.2979 62.4312C12.3799 62.5952 12.4619 62.7592 12.5463 62.9281C12.8856 62.9449 13.2239 62.9572 13.5634 62.9669C13.6589 62.9721 13.7544 62.9773 13.8528 62.9827C14.395 62.9943 14.5944 62.9781 15.037 62.6306C15.2791 62.307 15.2791 62.307 15.2791 62.0586C15.4431 61.9766 15.6071 61.8946 15.776 61.8101C15.7941 61.3884 15.8051 60.9667 15.8148 60.5446C15.82 60.4254 15.8252 60.3062 15.8306 60.1834C15.846 59.2954 15.846 59.2954 15.4922 58.8206C15.2216 58.628 14.9988 58.4754 14.6891 58.3631C13.9081 58.0627 13.9081 58.0627 13.61 58.0603Z" fill="#0FA9FF"/>
<path d="M77.5124 58.2078C77.5124 58.2898 77.5124 58.3718 77.5124 58.4562C77.3357 58.4716 77.3357 58.4716 77.1553 58.4873C77.0272 58.518 76.8991 58.5488 76.7671 58.5805C76.6274 58.8211 76.6274 58.8211 76.5187 59.0773C76.2785 59.2129 76.2785 59.2129 76.0218 59.3258C75.8234 59.4544 75.8234 59.4544 75.6492 59.6984C75.6053 60.0573 75.5858 60.3801 75.587 60.7388C75.5835 60.8326 75.58 60.9264 75.5764 61.0231C75.5745 61.5566 75.6048 61.7542 75.9481 62.1877C76.2703 62.4312 76.2703 62.4312 76.5187 62.4312C76.6007 62.5952 76.6827 62.7592 76.7671 62.9281C78.5164 63.0908 78.5164 63.0908 79.268 62.7534C79.7721 62.332 80.0034 61.9359 80.0846 61.2876C80.166 59.899 80.166 59.8989 79.6979 59.3442C79.5916 59.2561 79.4853 59.1681 79.3757 59.0773C79.2784 58.9697 79.181 58.8621 79.0807 58.7513C78.6158 58.3307 78.1473 57.9962 77.5124 58.2078Z" fill="#0FA9FF"/>
<path d="M36.7686 105.908C32.5464 105.908 28.3242 105.908 23.974 105.908C23.974 105.949 23.974 105.99 23.974 106.032C28.1962 106.032 32.4184 106.032 36.7686 106.032C36.7686 105.991 36.7686 105.95 36.7686 105.908Z" fill="black"/>
<path d="M66.9541 105.908C62.8549 105.908 58.7557 105.908 54.5322 105.908C54.5322 105.949 54.5322 105.99 54.5322 106.032C58.6314 106.032 62.7307 106.032 66.9541 106.032C66.9541 105.991 66.9541 105.95 66.9541 105.908Z" fill="black"/>
</svg>
