<svg width="19" height="19" viewBox="0 0 19 19" fill="none" xmlns="http://www.w3.org/2000/svg">
<path d="M3.16683 15.8332C2.73141 15.8332 2.35854 15.678 2.04821 15.3677C1.73787 15.0573 1.58297 14.6847 1.5835 14.2498V4.74984C1.5835 4.31442 1.73866 3.94155 2.049 3.63121C2.35933 3.32088 2.73194 3.16598 3.16683 3.16651H15.8335C16.2689 3.16651 16.6418 3.32167 16.9521 3.63201C17.2625 3.94234 17.4174 4.31495 17.4168 4.74984V14.2498C17.4168 14.6853 17.2617 15.0581 16.9513 15.3685C16.641 15.6788 16.2684 15.8337 15.8335 15.8332H3.16683ZM9.50016 10.2915L3.16683 6.33317V14.2498H15.8335V6.33317L9.50016 10.2915ZM9.50016 8.70817L15.8335 4.74984H3.16683L9.50016 8.70817ZM3.16683 6.33317V4.74984V14.2498V6.33317Z" fill="#F4F4F4"/>
</svg>
