<svg width="19" height="20" viewBox="0 0 19 20" fill="none" xmlns="http://www.w3.org/2000/svg">
<path d="M15.3899 10.8333C15.2157 10.8333 15.0336 10.775 14.8595 10.7333C14.5068 10.6515 14.1602 10.5429 13.8224 10.4083C13.4551 10.2677 13.0514 10.275 12.689 10.4288C12.3265 10.5827 12.0309 10.8722 11.8591 11.2416L11.6849 11.6166C10.9138 11.1651 10.2053 10.6043 9.57906 9.94997C8.95742 9.29082 8.42467 8.54497 7.99573 7.7333L8.32823 7.49997C8.67923 7.31907 8.95427 7.00791 9.10042 6.62638C9.24657 6.24485 9.25351 5.8199 9.1199 5.4333C8.9942 5.07699 8.89106 4.7123 8.81115 4.34164C8.77156 4.1583 8.7399 3.96664 8.71615 3.77497C8.62001 3.18799 8.32793 2.65642 7.89251 2.276C7.45709 1.89559 6.90695 1.69131 6.34115 1.69997H3.96615C3.62496 1.6966 3.28709 1.77065 2.97554 1.91708C2.66399 2.06351 2.38607 2.27888 2.1607 2.54854C1.93532 2.81819 1.76779 3.1358 1.66951 3.47973C1.57123 3.82367 1.5445 4.18585 1.59115 4.54164C2.0129 8.03279 3.52759 11.2765 5.89595 13.7605C8.26432 16.2445 11.3514 17.8271 14.6695 18.2583H14.9703C15.5541 18.2592 16.1178 18.0337 16.5536 17.625C16.8041 17.3892 17.0042 17.1001 17.1406 16.7769C17.2771 16.4537 17.3469 16.1037 17.3453 15.75V13.25C17.3356 12.6711 17.1354 12.1138 16.7787 11.673C16.4221 11.2323 15.9312 10.9355 15.3899 10.8333ZM15.7857 15.8333C15.7856 15.9516 15.7615 16.0686 15.7151 16.1763C15.6687 16.2841 15.601 16.3802 15.5166 16.4583C15.4284 16.5391 15.325 16.5995 15.2131 16.6354C15.1012 16.6713 14.9834 16.6819 14.8674 16.6666C11.9025 16.2665 9.14858 14.8387 7.03996 12.6085C4.93134 10.3784 3.58805 7.47275 3.22198 4.34997C3.20938 4.2279 3.22042 4.10441 3.25444 3.98696C3.28846 3.86951 3.34474 3.76054 3.4199 3.66664C3.49408 3.57775 3.5854 3.50651 3.68778 3.45765C3.79016 3.4088 3.90124 3.38345 4.01365 3.3833H6.38865C6.57275 3.37899 6.75251 3.44237 6.89701 3.56253C7.04151 3.68269 7.14169 3.85211 7.18031 4.04164C7.21198 4.26942 7.25156 4.49442 7.29906 4.71664C7.39052 5.15593 7.51223 5.58762 7.66323 6.00831L6.5549 6.54997C6.46013 6.59574 6.37489 6.66076 6.30406 6.7413C6.23324 6.82184 6.17822 6.91632 6.14218 7.0193C6.10613 7.12228 6.08977 7.23175 6.09403 7.34141C6.09828 7.45107 6.12307 7.55876 6.16698 7.6583C7.30635 10.2273 9.26813 12.2923 11.7086 13.4916C11.9014 13.575 12.1176 13.575 12.3103 13.4916C12.409 13.4545 12.4998 13.397 12.5772 13.3226C12.6547 13.2482 12.7174 13.1584 12.7616 13.0583L13.2524 11.8916C13.6617 12.0457 14.0794 12.1737 14.5032 12.275C14.7143 12.325 14.9281 12.3666 15.1445 12.4C15.3245 12.4406 15.4855 12.5461 15.5996 12.6982C15.7138 12.8503 15.774 13.0395 15.7699 13.2333L15.7857 15.8333Z" fill="#F4F4F4"/>
</svg>
