<svg width="19" height="19" viewBox="0 0 19 19" fill="none" xmlns="http://www.w3.org/2000/svg">
<path d="M9.5 2.37484C8.03026 2.37484 6.62071 2.95869 5.58145 3.99795C4.54219 5.03722 3.95833 6.44676 3.95833 7.9165C3.95833 10.1823 5.36908 12.368 6.91758 14.0614C7.70979 14.9236 8.57369 15.7171 9.5 16.4333C10.4263 15.7176 11.2902 14.9247 12.0824 14.063C13.6309 12.368 15.0417 10.183 15.0417 7.9165C15.0417 6.44676 14.4578 5.03722 13.4186 3.99795C12.3793 2.95869 10.9697 2.37484 9.5 2.37484ZM9.5 18.3776L9.05113 18.0688L9.04875 18.0673L9.044 18.0633L9.02817 18.0522L8.96879 18.0103C8.64099 17.772 8.32048 17.5238 8.00771 17.2661C7.20605 16.6075 6.45134 15.8938 5.74908 15.1302C4.13092 13.36 2.375 10.7958 2.375 7.9165C2.375 6.02684 3.12567 4.21456 4.46186 2.87837C5.79806 1.54217 7.61033 0.791504 9.5 0.791504C11.3897 0.791504 13.2019 1.54217 14.5381 2.87837C15.8743 4.21456 16.625 6.02684 16.625 7.9165C16.625 10.7958 14.8691 13.3608 13.2509 15.1302C12.3341 16.1274 11.3282 17.039 10.2458 17.8535C10.1556 17.9209 10.0645 17.9871 9.97263 18.0522L9.956 18.0633L9.95125 18.0673L9.94967 18.068L9.5 18.3768V18.3776ZM9.5 6.33317C9.08007 6.33317 8.67735 6.49999 8.38041 6.79692C8.08348 7.09385 7.91667 7.49658 7.91667 7.9165C7.91667 8.33643 8.08348 8.73916 8.38041 9.03609C8.67735 9.33302 9.08007 9.49984 9.5 9.49984C9.91993 9.49984 10.3227 9.33302 10.6196 9.03609C10.9165 8.73916 11.0833 8.33643 11.0833 7.9165C11.0833 7.49658 10.9165 7.09385 10.6196 6.79692C10.3227 6.49999 9.91993 6.33317 9.5 6.33317ZM6.33333 7.9165C6.33333 7.07665 6.66696 6.2712 7.26083 5.67733C7.85469 5.08347 8.66015 4.74984 9.5 4.74984C10.3399 4.74984 11.1453 5.08347 11.7392 5.67733C12.333 6.2712 12.6667 7.07665 12.6667 7.9165C12.6667 8.75636 12.333 9.56181 11.7392 10.1557C11.1453 10.7495 10.3399 11.0832 9.5 11.0832C8.66015 11.0832 7.85469 10.7495 7.26083 10.1557C6.66696 9.56181 6.33333 8.75636 6.33333 7.9165Z" fill="#F4F4F4"/>
</svg>
